<svg width="1150" height="142" viewBox="0 0 1150 142" fill="none" xmlns="http://www.w3.org/2000/svg">
<g opacity="0.2">
<path d="M1130.03 75.496C1130.32 75.2502 1130.62 75.029 1130.91 74.8324C1131.65 74.0951 1132.02 73.3824 1132.02 72.6943C1132.02 71.6621 1131.26 70.9003 1129.73 70.4087C1128.21 69.9172 1126.54 69.5977 1124.72 69.4503C1122.95 69.2537 1121.7 69.1554 1120.96 69.1554C1117.86 69.1554 1115.4 69.8681 1113.59 71.2935C1111.82 72.7189 1110.93 75.0782 1110.93 78.3714C1110.93 81.0747 1111.74 83.2374 1113.36 84.8594C1114.99 86.4323 1117.08 87.7102 1119.63 88.6933C1122.19 89.6763 1124.89 90.5856 1127.74 91.4212C1130.64 92.2568 1133.37 93.2398 1135.93 94.3703C1138.48 95.4516 1140.57 96.9016 1142.19 98.7202C1143.86 100.539 1144.7 102.972 1144.7 106.019C1144.7 109.804 1143.54 113.417 1141.23 116.857C1138.97 120.298 1136 123.468 1132.31 126.368C1128.68 129.219 1124.67 131.726 1120.29 133.888C1115.97 136.002 1111.69 137.624 1107.47 138.754C1103.24 139.934 1099.5 140.524 1096.26 140.524C1094.93 140.524 1093.04 140.303 1090.58 139.86C1088.12 139.467 1085.89 138.779 1083.87 137.796C1081.86 136.764 1080.85 135.363 1080.85 133.594C1080.85 132.021 1081.66 130.522 1083.28 129.096C1084.91 127.671 1086.85 126.344 1089.11 125.115C1091.42 123.886 1093.65 122.731 1095.82 121.65C1098.03 120.568 1099.68 119.536 1100.76 118.553C1100.22 119.094 1099.72 119.757 1099.28 120.544C1098.89 121.281 1098.69 122.043 1098.69 122.829C1098.69 124.206 1099.36 125.336 1100.68 126.221C1102.06 127.056 1103.73 127.695 1105.7 128.138C1107.66 128.58 1109.58 128.875 1111.45 129.022C1113.32 129.17 1114.74 129.244 1115.72 129.244C1119.12 129.244 1121.77 128.285 1123.69 126.368C1125.65 124.451 1126.64 121.797 1126.64 118.406C1126.64 115.604 1125.82 113.294 1124.2 111.475C1122.58 109.657 1120.49 108.157 1117.94 106.978C1115.43 105.798 1112.75 104.741 1109.9 103.807C1107.05 102.824 1104.35 101.768 1101.79 100.637C1099.28 99.5067 1097.22 98.1304 1095.6 96.5084C1093.97 94.8864 1093.16 92.7729 1093.16 90.1678C1093.16 87.1696 1094.29 84.1467 1096.55 81.0993C1098.82 78.0519 1101.72 75.1519 1105.25 72.3994C1108.84 69.6469 1112.68 67.2139 1116.76 65.1003C1120.88 62.9377 1124.87 61.2419 1128.7 60.0131C1132.53 58.7843 1135.78 58.1699 1138.43 58.1699C1139.41 58.1699 1140.74 58.2436 1142.41 58.3911C1144.13 58.5386 1145.73 58.8826 1147.21 59.4233C1148.73 59.964 1149.64 60.8241 1149.93 62.0038C1149.54 63.2817 1148.78 64.2648 1147.65 64.9529C1146.52 65.641 1145.41 66.28 1144.33 66.8698C1142.02 68.0986 1139.73 69.352 1137.47 70.6299C1135.21 71.8587 1133.03 73.2596 1130.91 74.8324C1130.62 75.1273 1130.32 75.3485 1130.03 75.496Z" fill="#060606"/>
<path d="M1090.07 57.0662C1089.08 57.2137 1087.81 57.8526 1086.23 58.9831C1084.71 60.1136 1083.04 61.4161 1081.22 62.8907C1079.45 64.3161 1077.73 65.5695 1076.06 66.6508C1074.44 67.683 1073.08 68.1991 1072 68.1991H1061.9L1053.2 111.625C1052.96 112.854 1052.74 114.107 1052.54 115.385C1052.39 116.663 1052.32 117.916 1052.32 119.145C1052.32 122.881 1053.28 125.559 1055.19 127.181C1057.16 128.754 1059.94 129.541 1063.52 129.541C1065.39 129.541 1067.21 129.246 1068.98 128.656C1070.8 128.066 1072.52 127.378 1074.14 126.592C1071 130.622 1066.92 133.866 1061.9 136.324C1056.89 138.781 1051.8 140.01 1046.64 140.01C1042.41 140.01 1039.42 138.757 1037.65 136.25C1035.93 133.743 1035.07 130.548 1035.07 126.665C1035.07 125.338 1035.14 124.011 1035.29 122.684C1035.43 121.357 1035.66 120.054 1035.95 118.776L1046.05 68.1991H1035.43L1047.89 59.8679L1049.96 48.3663C1052.07 46.8917 1054.19 45.4663 1056.3 44.0901C1058.46 42.7138 1060.67 41.4359 1062.93 40.2562C1063.82 39.8139 1064.7 39.3715 1065.59 38.9291C1066.52 38.4868 1067.36 37.9215 1068.1 37.2334L1064.11 57.0662H1090.07Z" fill="#060606"/>
<path d="M1021.72 0.66333C1021.48 2.13789 1021.18 3.98108 1020.84 6.19292C1020.54 8.40476 1020.15 10.6166 1019.66 12.8284C1019.21 15.0403 1018.65 16.8589 1017.96 18.2843C1017.81 18.5792 1016.93 19.2428 1015.31 20.2749C1013.73 21.3071 1011.87 22.4622 1009.7 23.7402C1007.59 25.0181 1005.6 26.1977 1003.73 27.2791C1001.91 28.3113 1000.71 29.024 1000.12 29.4172L1003.58 11.7962L1021.72 0.66333ZM998.202 122.093C998.202 124.993 999.111 126.885 1000.93 127.77C1002.8 128.606 1004.98 129.024 1007.49 129.024C1009.31 129.024 1011.05 128.876 1012.73 128.581C1010.51 130.154 1008.15 131.825 1005.65 133.595C1003.19 135.364 1000.61 136.888 997.907 138.166C995.203 139.395 992.451 140.009 989.649 140.009C986.848 140.009 984.587 139.468 982.866 138.387C981.195 137.306 980.36 135.241 980.36 132.194C980.36 131.358 980.409 130.547 980.507 129.761C980.605 128.925 980.753 128.09 980.949 127.254L988.765 88.6207C988.961 87.5885 989.133 86.5563 989.281 85.5241C989.477 84.4919 989.576 83.4597 989.576 82.4275C989.576 80.6089 989.158 79.1098 988.322 77.9301C987.536 76.7505 986.135 76.1607 984.12 76.1607C982.891 76.1607 981.662 76.2835 980.433 76.5293C979.254 76.7259 978.074 76.9471 976.894 77.1929C982.498 73.6539 988.101 70.0904 993.704 66.5023C999.308 62.8651 1005.11 59.6456 1011.1 56.844L998.644 118.407C998.349 119.783 998.202 121.012 998.202 122.093Z" fill="#060606"/>
<path d="M937.45 121.578C937.45 124.183 938.138 126.026 939.515 127.107C940.891 128.189 942.857 128.729 945.413 128.729C947.084 128.729 948.706 128.557 950.279 128.213C948.165 129.835 945.855 131.556 943.348 133.374C940.891 135.193 938.31 136.741 935.607 138.019C932.953 139.248 930.2 139.862 927.349 139.862C924.99 139.862 923.049 139.445 921.525 138.609C920.05 137.773 919.313 136.028 919.313 133.374C919.313 132.44 919.362 131.531 919.461 130.646C919.608 129.712 919.78 128.803 919.977 127.918C917.322 129.639 914.545 131.457 911.645 133.374C908.745 135.291 905.747 136.913 902.651 138.24C899.554 139.567 896.335 140.231 892.992 140.231C885.57 140.231 879.918 138.191 876.035 134.112C872.201 129.983 870.284 124.257 870.284 116.933C870.284 109.462 871.882 102.237 875.076 95.257C878.271 88.2283 882.597 81.9122 888.053 76.3089C893.558 70.7056 899.775 66.2574 906.706 62.9642C913.685 59.671 920.911 58.0244 928.382 58.0244C931.97 58.0244 935.435 58.5651 938.777 59.6464C942.169 60.7278 945.56 61.7354 948.952 62.6693L938.114 116.048C937.917 116.933 937.745 117.842 937.598 118.776C937.499 119.71 937.45 120.644 937.45 121.578ZM929.561 80.6589C926.366 72.7946 920.542 68.8624 912.088 68.8624C907.762 68.8624 904.051 70.2878 900.955 73.1386C897.907 75.9403 895.401 79.5038 893.435 83.8292C891.518 88.1054 890.092 92.5291 889.158 97.1002C888.274 101.622 887.831 105.579 887.831 108.97C887.831 115.557 889.429 120.595 892.624 124.085C895.868 127.525 900.832 129.246 907.517 129.246C908.844 129.246 910.54 128.852 912.604 128.066C914.717 127.23 916.659 126.198 918.428 124.969C920.198 123.691 921.23 122.34 921.525 120.914L929.561 80.6589Z" fill="#DE7272"/>
<path d="M874.559 59.4973C872.298 62.3481 869.497 64.8794 866.154 67.0912C862.812 69.2539 859.224 70.9496 855.39 72.1784C851.605 73.4072 847.919 74.0216 844.331 74.0216C842.168 74.0216 840.153 73.6038 838.285 72.7683C836.417 71.8835 834.525 71.0234 832.608 70.1878C830.74 69.3031 828.75 68.8607 826.636 68.8607C824.523 68.8607 822.655 70.0403 821.033 72.3996C819.411 74.7589 817.985 77.7572 816.757 81.3944C815.528 85.0317 814.471 88.8655 813.586 92.896C812.702 96.8773 811.964 100.564 811.374 103.955C810.785 107.347 810.318 109.903 809.974 111.623C809.58 113.54 809.113 115.481 808.573 117.447C808.081 119.364 807.836 121.33 807.836 123.346C807.836 124.918 808.155 126.295 808.794 127.474C809.482 128.654 810.735 129.244 812.554 129.244C813.734 129.244 815.036 128.949 816.462 128.359C814.053 130.079 811.964 131.873 810.195 133.741C808.425 135.56 806.508 137.108 804.444 138.386C802.38 139.615 799.652 140.229 796.26 140.229C794.589 140.229 793.09 139.689 791.763 138.607C790.436 137.575 789.772 136.174 789.772 134.405C789.772 133.962 789.821 133.52 789.92 133.078C791.591 124.673 793.311 116.268 795.081 107.863C796.899 99.4578 798.62 91.0528 800.242 82.6478C800.438 81.6648 800.61 80.6817 800.758 79.6987C800.954 78.6665 801.053 77.6589 801.053 76.6758C801.053 74.1199 800.34 72.3996 798.914 71.5149C797.538 70.6302 795.67 70.1878 793.311 70.1878C791.148 70.1878 788.912 70.5564 786.602 71.2937C786.405 71.392 786.233 71.4657 786.086 71.5149C786.086 71.5149 786.258 71.4412 786.602 71.2937C789.158 70.409 791.271 69.3031 792.943 67.976C794.614 66.5997 796.236 65.2234 797.809 63.8472C799.431 62.4709 801.298 61.3404 803.412 60.4557C805.575 59.5218 808.376 59.0549 811.817 59.0549C816.486 59.0549 818.821 61.2913 818.821 65.7641C818.821 66.6489 818.772 67.509 818.674 68.3446C818.624 69.1802 818.526 70.0158 818.379 70.8513C821.131 69.2293 824.277 67.3861 827.816 65.3218C831.404 63.2574 835.041 61.4879 838.728 60.0133C842.463 58.4896 845.928 57.7278 849.123 57.7278C851.384 57.7278 853.449 58.1702 855.316 59.0549C857.184 59.8905 858.929 60.7506 860.551 61.6354C862.222 62.4709 863.844 62.8887 865.417 62.8887C866.892 62.8887 868.464 62.5201 870.136 61.7828C871.856 60.9964 873.33 60.2345 874.559 59.4973Z" fill="#060606"/>
<path d="M778.198 57.0662C777.215 57.2137 775.937 57.8526 774.364 58.9831C772.84 60.1136 771.169 61.4161 769.35 62.8907C767.581 64.3161 765.861 65.5695 764.189 66.6508C762.567 67.683 761.216 68.1991 760.134 68.1991H750.034L741.334 111.625C741.088 112.854 740.867 114.107 740.67 115.385C740.523 116.663 740.449 117.916 740.449 119.145C740.449 122.881 741.407 125.559 743.324 127.181C745.29 128.754 748.068 129.541 751.656 129.541C753.523 129.541 755.342 129.246 757.111 128.656C758.93 128.066 760.65 127.378 762.272 126.592C759.127 130.622 755.047 133.866 750.034 136.324C745.02 138.781 739.933 140.01 734.772 140.01C730.545 140.01 727.547 138.757 725.777 136.25C724.057 133.743 723.197 130.548 723.197 126.665C723.197 125.338 723.27 124.011 723.418 122.684C723.565 121.357 723.786 120.054 724.081 118.776L734.182 68.1991H723.565L736.025 59.8679L738.09 48.3663C740.203 46.8917 742.317 45.4663 744.43 44.0901C746.593 42.7138 748.805 41.4359 751.066 40.2562C751.951 39.8139 752.835 39.3715 753.72 38.9291C754.654 38.4868 755.489 37.9215 756.227 37.2334L752.245 57.0662H778.198Z" fill="#060606"/>
<path d="M720.617 59.4973C718.356 62.3481 715.554 64.8794 712.212 67.0912C708.869 69.2539 705.281 70.9496 701.447 72.1784C697.663 73.4072 693.976 74.0216 690.388 74.0216C688.226 74.0216 686.21 73.6038 684.343 72.7683C682.475 71.8835 680.582 71.0234 678.665 70.1878C676.798 69.3031 674.807 68.8607 672.694 68.8607C670.58 68.8607 668.712 70.0403 667.09 72.3996C665.468 74.7589 664.043 77.7572 662.814 81.3944C661.585 85.0317 660.528 88.8655 659.644 92.896C658.759 96.8773 658.022 100.564 657.432 103.955C656.842 107.347 656.375 109.903 656.031 111.623C655.638 113.54 655.171 115.481 654.63 117.447C654.139 119.364 653.893 121.33 653.893 123.346C653.893 124.918 654.212 126.295 654.851 127.474C655.539 128.654 656.793 129.244 658.611 129.244C659.791 129.244 661.094 128.949 662.519 128.359C660.111 130.079 658.022 131.873 656.252 133.741C654.483 135.56 652.566 137.108 650.501 138.386C648.437 139.615 645.709 140.229 642.318 140.229C640.646 140.229 639.147 139.689 637.82 138.607C636.493 137.575 635.83 136.174 635.83 134.405C635.83 133.962 635.879 133.52 635.977 133.078C637.648 124.673 639.369 116.268 641.138 107.863C642.957 99.4578 644.677 91.0528 646.299 82.6478C646.496 81.6648 646.668 80.6817 646.815 79.6987C647.012 78.6665 647.11 77.6589 647.11 76.6758C647.11 74.1199 646.397 72.3996 644.972 71.5149C643.596 70.6302 641.728 70.1878 639.369 70.1878C637.206 70.1878 634.969 70.5564 632.659 71.2937C632.463 71.392 632.291 71.4657 632.143 71.5149C632.143 71.5149 632.315 71.4412 632.659 71.2937C635.215 70.409 637.329 69.3031 639 67.976C640.671 66.5997 642.293 65.2234 643.866 63.8472C645.488 62.4709 647.356 61.3404 649.469 60.4557C651.632 59.5218 654.434 59.0549 657.874 59.0549C662.544 59.0549 664.878 61.2913 664.878 65.7641C664.878 66.6489 664.829 67.509 664.731 68.3446C664.682 69.1802 664.583 70.0158 664.436 70.8513C667.188 69.2293 670.334 67.3861 673.873 65.3218C677.461 63.2574 681.098 61.4879 684.785 60.0133C688.52 58.4896 691.986 57.7278 695.181 57.7278C697.441 57.7278 699.506 58.1702 701.374 59.0549C703.241 59.8905 704.986 60.7506 706.608 61.6354C708.279 62.4709 709.902 62.8887 711.474 62.8887C712.949 62.8887 714.522 62.5201 716.193 61.7828C717.913 60.9964 719.388 60.2345 720.617 59.4973Z" fill="#060606"/>
<path d="M560.553 139.862C555.49 139.862 551.042 138.658 547.208 136.25C543.423 133.841 540.474 130.622 538.361 126.591C536.247 122.512 535.19 118.014 535.19 113.099C535.19 107.938 536.321 102.753 538.582 97.5425C540.892 92.3324 544.013 87.3681 547.945 82.6495C551.878 77.9309 556.301 73.7284 561.216 70.0421C566.132 66.3065 571.243 63.382 576.552 61.2684C581.909 59.1058 587.095 58.0244 592.108 58.0244C597.22 58.0244 601.619 59.2286 605.306 61.6371C609.041 63.9964 611.917 67.1912 613.932 71.2217C615.996 75.2522 617.028 79.725 617.028 84.6402C617.028 89.752 615.898 94.9375 613.637 100.197C611.376 105.407 608.304 110.396 604.421 115.164C600.587 119.882 596.237 124.109 591.371 127.845C586.505 131.531 581.418 134.456 576.109 136.618C570.85 138.781 565.665 139.862 560.553 139.862ZM573.75 69.0099C570.113 69.0099 567.016 70.0912 564.46 72.2539C561.904 74.3674 559.816 77.0954 558.194 80.4377C556.572 83.7309 555.392 87.1961 554.655 90.8333C553.917 94.4214 553.549 97.6654 553.549 100.565C553.549 105.726 554.458 110.469 556.277 114.795C558.095 119.071 560.848 122.512 564.534 125.117C568.221 127.722 572.841 129.024 578.395 129.024C581.983 129.024 585.055 127.943 587.611 125.78C590.216 123.568 592.33 120.791 593.952 117.449C595.574 114.107 596.753 110.617 597.49 106.98C598.277 103.342 598.67 100.074 598.67 97.1739C598.67 92.013 597.736 87.319 595.868 83.0919C594.05 78.8157 591.297 75.3996 587.611 72.8437C583.925 70.2878 579.304 69.0099 573.75 69.0099Z" fill="#060606"/>
<path d="M465.002 95.6253C464.167 99.9015 463.307 103.932 462.422 107.717C461.537 111.501 460.161 115.04 458.293 118.334C456.425 121.627 453.648 124.699 449.962 127.549H475.619C473.653 128.139 471.589 129.344 469.426 131.162C467.263 132.932 465.15 134.603 463.085 136.176C461.021 137.749 459.178 138.535 457.556 138.535H431.825C434.774 136.323 437.059 134.234 438.681 132.268C440.353 130.253 441.631 128.041 442.515 125.633C443.449 123.224 444.26 120.25 444.948 116.711L461.979 32.7354H443.179C443.867 32.2439 445.047 31.4083 446.718 30.2287C448.438 28.9999 450.306 27.722 452.321 26.3949C454.336 25.0677 456.179 23.9373 457.851 23.0034C459.522 22.0695 460.677 21.6025 461.316 21.6025H514.474C521.306 21.6025 526.86 23.1508 531.136 26.2474C535.412 29.344 537.55 34.5541 537.55 41.8777C537.55 48.9556 535.978 55.4682 532.832 61.4156C529.735 67.363 525.68 72.7205 520.667 77.4883C515.653 82.2068 510.271 86.2619 504.52 89.6534C501.031 91.7669 496.976 93.2415 492.355 94.077C487.735 94.8635 483.016 95.3304 478.2 95.4779C473.432 95.5762 469.033 95.6253 465.002 95.6253ZM468.099 80.806C470.311 81.4941 473.088 82.1331 476.43 82.7229C479.772 83.3128 483.115 83.7797 486.457 84.1238C489.849 84.4678 492.699 84.6399 495.009 84.6399C500.269 84.6399 504.692 83.3128 508.281 80.6586C511.869 78.0044 514.572 74.5391 516.391 70.2629C518.209 65.9867 519.119 61.4156 519.119 56.5495C519.119 51.1428 517.742 46.8666 514.99 43.7209C512.286 40.526 508.797 38.1422 504.52 36.5693C500.244 34.9964 495.722 33.9642 490.954 33.4727C486.187 32.9812 481.788 32.7354 477.757 32.7354L468.099 80.806Z" fill="#060606"/>
<path d="M309.804 108.233C310.099 113.345 311.574 117.4 314.228 120.398C316.882 123.348 320.249 125.486 324.328 126.813C328.457 128.091 332.758 128.73 337.231 128.73C341.31 128.73 345.39 128.263 349.47 127.329C353.598 126.346 357.555 125.092 361.34 123.569C357.752 126.764 353.574 129.59 348.806 132.047C344.088 134.456 339.148 136.348 333.987 137.725C328.875 139.052 323.911 139.715 319.094 139.715C314.179 139.715 309.681 138.609 305.602 136.397C301.571 134.136 298.327 131.064 295.87 127.181C293.461 123.249 292.257 118.776 292.257 113.763C292.257 112.043 292.429 110.371 292.773 108.749C293.756 103.883 295.722 99.1648 298.671 94.5937C301.669 90.0226 305.258 85.7464 309.435 81.7651C313.613 77.7838 318.037 74.2694 322.706 71.222C327.376 68.1746 331.873 65.7415 336.199 63.9229C339.885 62.3501 343.694 61.1213 347.626 60.2365C351.608 59.3026 355.614 58.8357 359.644 58.8357C362.593 58.8357 365.247 59.6959 367.607 61.4162C370.015 63.0873 371.219 65.5204 371.219 68.7152C371.219 71.5169 370.04 74.3185 367.68 77.1202C365.321 79.8727 362.2 82.5515 358.317 85.1565C354.434 87.7616 350.182 90.2438 345.562 92.6031C340.942 94.9132 336.322 97.0759 331.701 99.0911C327.081 101.106 322.829 102.9 318.946 104.473C315.112 105.997 312.065 107.25 309.804 108.233ZM338.927 70.3372C332.34 70.3372 326.934 71.9593 322.706 75.2033C318.479 78.3982 315.309 82.5761 313.196 87.737C311.131 92.898 310.001 98.403 309.804 104.252C311.475 103.908 314.007 103.146 317.398 101.966C320.839 100.738 324.599 99.2386 328.678 97.4691C332.807 95.6505 336.739 93.709 340.475 91.6446C344.21 89.5311 347.282 87.4175 349.691 85.304C352.148 83.1905 353.377 81.1998 353.377 79.332C353.377 77.3168 352.517 75.6456 350.797 74.3185C349.076 72.9423 347.061 71.9347 344.751 71.2957C342.49 70.6567 340.549 70.3372 338.927 70.3372Z" fill="#060606"/>
<path d="M265.42 121.651C265.42 124.305 266.108 126.148 267.484 127.181C268.91 128.213 270.876 128.729 273.382 128.729C275.054 128.729 276.676 128.557 278.249 128.213C276.037 129.786 273.677 131.481 271.171 133.3C268.713 135.119 266.133 136.667 263.429 137.945C260.775 139.223 257.998 139.862 255.098 139.862C252.788 139.862 250.895 139.419 249.421 138.535C247.946 137.699 247.209 136.003 247.209 133.447C247.209 132.514 247.283 131.58 247.43 130.646C247.578 129.712 247.75 128.803 247.946 127.918C245.194 129.638 242.171 131.457 238.878 133.374C235.585 135.291 232.193 136.913 228.703 138.24C225.214 139.567 221.798 140.23 218.455 140.23C210.886 140.23 204.938 138.117 200.613 133.89C196.337 129.614 194.199 123.666 194.199 116.048C194.199 110.002 195.403 104.128 197.811 98.4267C200.22 92.7251 203.488 87.4413 207.617 82.5752C211.795 77.66 216.538 73.3838 221.847 69.7466C227.155 66.0602 232.758 63.1848 238.657 61.1204C244.604 59.056 250.502 58.0238 256.351 58.0238C258.416 58.0238 260.283 58.1959 261.955 58.5399L267.779 29.27C268.074 27.8446 268.222 26.542 268.222 25.3624C268.222 23.4946 267.804 21.9955 266.968 20.865C266.133 19.6853 264.707 19.0955 262.692 19.0955C261.463 19.0955 260.234 19.2184 259.006 19.4642C257.777 19.7099 256.597 19.9803 255.467 20.2752C260.922 16.6379 266.452 13.0253 272.055 9.43717C277.659 5.84908 283.483 2.70336 289.529 0L266.083 116.048C265.887 116.982 265.715 117.915 265.567 118.849C265.469 119.783 265.42 120.717 265.42 121.651ZM257.531 80.6583C255.762 76.6278 253.034 73.6541 249.347 71.7372C245.71 69.8203 241.778 68.8618 237.551 68.8618C232.881 68.8618 228.925 69.9923 225.681 72.2533C222.486 74.4651 219.881 77.3651 217.865 80.9532C215.899 84.5413 214.449 88.4243 213.515 92.6022C212.631 96.7801 212.188 100.786 212.188 104.62C212.188 112.238 214.105 118.26 217.939 122.683C221.773 127.058 227.622 129.245 235.486 129.245C236.813 129.245 238.509 128.852 240.574 128.065C242.687 127.23 244.629 126.173 246.398 124.895C248.168 123.617 249.2 122.29 249.495 120.914L257.531 80.6583Z" fill="#060606"/>
<path d="M124.084 139.862C119.022 139.862 114.573 138.658 110.74 136.25C106.955 133.841 104.006 130.622 101.892 126.591C99.7787 122.512 98.7219 118.014 98.7219 113.099C98.7219 107.938 99.8524 102.753 102.113 97.5425C104.424 92.3324 107.545 87.3681 111.477 82.6495C115.409 77.9309 119.833 73.7284 124.748 70.0421C129.663 66.3065 134.775 63.382 140.083 61.2684C145.441 59.1058 150.626 58.0244 155.64 58.0244C160.752 58.0244 165.151 59.2286 168.837 61.6371C172.573 63.9964 175.448 67.1912 177.463 71.2217C179.528 75.2522 180.56 79.725 180.56 84.6402C180.56 89.752 179.429 94.9375 177.168 100.197C174.907 105.407 171.835 110.396 167.952 115.164C164.119 119.882 159.769 124.109 154.903 127.845C150.037 131.531 144.949 134.456 139.641 136.618C134.382 138.781 129.196 139.862 124.084 139.862ZM137.282 69.0099C133.644 69.0099 130.548 70.0912 127.992 72.2539C125.436 74.3674 123.347 77.0954 121.725 80.4377C120.103 83.7309 118.923 87.1961 118.186 90.8333C117.449 94.4214 117.08 97.6654 117.08 100.565C117.08 105.726 117.989 110.469 119.808 114.795C121.627 119.071 124.379 122.512 128.066 125.117C131.752 127.722 136.372 129.024 141.926 129.024C145.515 129.024 148.587 127.943 151.142 125.78C153.747 123.568 155.861 120.791 157.483 117.449C159.105 114.107 160.285 110.617 161.022 106.98C161.808 103.342 162.202 100.074 162.202 97.1739C162.202 92.013 161.268 87.319 159.4 83.0919C157.581 78.8157 154.829 75.3996 151.142 72.8437C147.456 70.2878 142.836 69.0099 137.282 69.0099Z" fill="#060606"/>
<path d="M117.817 23.9617C117.817 24.4041 116.81 25.3134 114.794 26.6897C112.828 28.0659 110.493 29.5896 107.79 31.2608C105.087 32.8828 102.555 34.3573 100.196 35.6845C97.8369 37.0116 96.3132 37.8717 95.625 38.2649C95.92 38.0192 96.6327 37.4539 97.7632 36.5692C98.8936 35.6845 99.4589 35.0701 99.4589 34.726C99.4589 33.8413 98.4267 33.0794 96.3623 32.4404C94.2979 31.8014 91.8403 31.2854 88.9895 30.8921C86.1879 30.4498 83.5337 30.1303 81.0269 29.9337C78.5202 29.6879 76.849 29.565 76.0134 29.565C64.4136 29.565 54.2883 32.0472 45.6376 37.0116C36.9868 41.9267 30.253 48.7834 25.4361 57.5816C20.6684 66.3307 18.2845 76.5051 18.2845 88.105C18.2845 96.0184 19.6853 103.195 22.487 109.634C25.3378 116.072 29.5649 121.209 35.1682 125.043C40.8207 128.827 47.874 130.72 56.3281 130.72C60.1619 130.72 64.3153 130.253 68.7881 129.319C73.2609 128.336 77.6846 127.132 82.0591 125.706C86.4336 124.281 90.3904 122.855 93.9293 121.43C89.0633 125.411 83.4599 128.95 77.1194 132.047C70.7788 135.143 64.1678 137.576 57.2866 139.346C50.4544 141.115 43.8927 142 37.6012 142C29.5403 142 22.7082 140.255 17.1049 136.765C11.5015 133.226 7.24991 128.41 4.34994 122.315C1.44998 116.22 0 109.314 0 101.597C0 92.2583 1.86777 83.411 5.60332 75.0551C9.33886 66.6993 14.4261 59.0808 20.865 52.1995C27.3039 45.2691 34.6029 39.2971 42.7622 34.2836C50.9214 29.221 59.4984 25.3134 68.4932 22.5609C77.488 19.8084 86.3599 18.4321 95.109 18.4321C95.8954 18.4321 97.4928 18.555 99.9013 18.8008C102.31 18.9974 104.89 19.3414 107.643 19.833C110.395 20.2753 112.779 20.8406 114.794 21.5287C116.81 22.2168 117.817 23.0278 117.817 23.9617Z" fill="#060606"/>
</g>
</svg>
