<svg width="976" height="121" viewBox="0 0 976 121" fill="none" xmlns="http://www.w3.org/2000/svg">
<path d="M958.75 64C959 63.7917 959.25 63.6042 959.5 63.4375C960.125 62.8125 960.438 62.2083 960.438 61.625C960.438 60.75 959.792 60.1042 958.5 59.6875C957.208 59.2708 955.792 59 954.25 58.875C952.75 58.7083 951.688 58.625 951.062 58.625C948.438 58.625 946.354 59.2292 944.812 60.4375C943.312 61.6458 942.562 63.6458 942.562 66.4375C942.562 68.7292 943.25 70.5625 944.625 71.9375C946 73.2708 947.771 74.3542 949.938 75.1875C952.104 76.0208 954.396 76.7917 956.812 77.5C959.271 78.2083 961.583 79.0417 963.75 80C965.917 80.9167 967.688 82.1458 969.062 83.6875C970.479 85.2292 971.188 87.2917 971.188 89.875C971.188 93.0833 970.208 96.1458 968.25 99.0625C966.333 101.979 963.812 104.667 960.688 107.125C957.604 109.542 954.208 111.667 950.5 113.5C946.833 115.292 943.208 116.667 939.625 117.625C936.042 118.625 932.875 119.125 930.125 119.125C929 119.125 927.396 118.938 925.312 118.562C923.229 118.229 921.333 117.646 919.625 116.812C917.917 115.938 917.062 114.75 917.062 113.25C917.062 111.917 917.75 110.646 919.125 109.438C920.5 108.229 922.146 107.104 924.062 106.062C926.021 105.021 927.917 104.042 929.75 103.125C931.625 102.208 933.021 101.333 933.938 100.5C933.479 100.958 933.062 101.521 932.688 102.188C932.354 102.812 932.188 103.458 932.188 104.125C932.188 105.292 932.75 106.25 933.875 107C935.042 107.708 936.458 108.25 938.125 108.625C939.792 109 941.417 109.25 943 109.375C944.583 109.5 945.792 109.562 946.625 109.562C949.5 109.562 951.75 108.75 953.375 107.125C955.042 105.5 955.875 103.25 955.875 100.375C955.875 98 955.188 96.0417 953.812 94.5C952.438 92.9583 950.667 91.6875 948.5 90.6875C946.375 89.6875 944.104 88.7917 941.688 88C939.271 87.1667 936.979 86.2708 934.812 85.3125C932.688 84.3542 930.938 83.1875 929.562 81.8125C928.188 80.4375 927.5 78.6458 927.5 76.4375C927.5 73.8958 928.458 71.3333 930.375 68.75C932.292 66.1667 934.75 63.7083 937.75 61.375C940.792 59.0417 944.042 56.9792 947.5 55.1875C951 53.3542 954.375 51.9167 957.625 50.875C960.875 49.8333 963.625 49.3125 965.875 49.3125C966.708 49.3125 967.833 49.375 969.25 49.5C970.708 49.625 972.062 49.9167 973.312 50.375C974.604 50.8333 975.375 51.5625 975.625 52.5625C975.292 53.6458 974.646 54.4792 973.688 55.0625C972.729 55.6458 971.792 56.1875 970.875 56.6875C968.917 57.7292 966.979 58.7917 965.062 59.875C963.146 60.9167 961.292 62.1042 959.5 63.4375C959.25 63.6875 959 63.875 958.75 64Z" fill="white"/>
<path d="M924.875 48.375C924.042 48.5 922.958 49.0417 921.625 50C920.333 50.9583 918.917 52.0625 917.375 53.3125C915.875 54.5208 914.417 55.5833 913 56.5C911.625 57.375 910.479 57.8125 909.562 57.8125H901L893.625 94.625C893.417 95.6667 893.229 96.7292 893.062 97.8125C892.938 98.8958 892.875 99.9583 892.875 101C892.875 104.167 893.688 106.438 895.312 107.812C896.979 109.146 899.333 109.812 902.375 109.812C903.958 109.812 905.5 109.562 907 109.062C908.542 108.562 910 107.979 911.375 107.312C908.708 110.729 905.25 113.479 901 115.562C896.75 117.646 892.438 118.688 888.062 118.688C884.479 118.688 881.938 117.625 880.438 115.5C878.979 113.375 878.25 110.667 878.25 107.375C878.25 106.25 878.312 105.125 878.438 104C878.562 102.875 878.75 101.771 879 100.688L887.562 57.8125H878.562L889.125 50.75L890.875 41C892.667 39.75 894.458 38.5417 896.25 37.375C898.083 36.2083 899.958 35.125 901.875 34.125C902.625 33.75 903.375 33.375 904.125 33C904.917 32.625 905.625 32.1458 906.25 31.5625L902.875 48.375H924.875Z" fill="white"/>
<path d="M866.938 0.5625C866.729 1.8125 866.479 3.375 866.188 5.25C865.938 7.125 865.604 9 865.188 10.875C864.812 12.75 864.333 14.2917 863.75 15.5C863.625 15.75 862.875 16.3125 861.5 17.1875C860.167 18.0625 858.583 19.0417 856.75 20.125C854.958 21.2083 853.271 22.2083 851.688 23.125C850.146 24 849.125 24.6042 848.625 24.9375L851.562 10L866.938 0.5625ZM847 103.5C847 105.958 847.771 107.562 849.312 108.312C850.896 109.021 852.75 109.375 854.875 109.375C856.417 109.375 857.896 109.25 859.312 109C857.438 110.333 855.438 111.75 853.312 113.25C851.229 114.75 849.042 116.042 846.75 117.125C844.458 118.167 842.125 118.688 839.75 118.688C837.375 118.688 835.458 118.229 834 117.312C832.583 116.396 831.875 114.646 831.875 112.062C831.875 111.354 831.917 110.667 832 110C832.083 109.292 832.208 108.583 832.375 107.875L839 75.125C839.167 74.25 839.312 73.375 839.438 72.5C839.604 71.625 839.688 70.75 839.688 69.875C839.688 68.3333 839.333 67.0625 838.625 66.0625C837.958 65.0625 836.771 64.5625 835.062 64.5625C834.021 64.5625 832.979 64.6667 831.938 64.875C830.938 65.0417 829.938 65.2292 828.938 65.4375C833.688 62.4375 838.438 59.4167 843.188 56.375C847.938 53.2917 852.854 50.5625 857.938 48.1875L847.375 100.375C847.125 101.542 847 102.583 847 103.5Z" fill="white"/>
<path d="M795.5 103.062C795.5 105.271 796.083 106.833 797.25 107.75C798.417 108.667 800.083 109.125 802.25 109.125C803.667 109.125 805.042 108.979 806.375 108.688C804.583 110.062 802.625 111.521 800.5 113.062C798.417 114.604 796.229 115.917 793.938 117C791.688 118.042 789.354 118.562 786.938 118.562C784.938 118.562 783.292 118.208 782 117.5C780.75 116.792 780.125 115.312 780.125 113.062C780.125 112.271 780.167 111.5 780.25 110.75C780.375 109.958 780.521 109.188 780.688 108.438C778.438 109.896 776.083 111.438 773.625 113.062C771.167 114.688 768.625 116.062 766 117.188C763.375 118.312 760.646 118.875 757.812 118.875C751.521 118.875 746.729 117.146 743.438 113.688C740.188 110.188 738.562 105.333 738.562 99.125C738.562 92.7917 739.917 86.6667 742.625 80.75C745.333 74.7917 749 69.4375 753.625 64.6875C758.292 59.9375 763.562 56.1667 769.438 53.375C775.354 50.5833 781.479 49.1875 787.812 49.1875C790.854 49.1875 793.792 49.6458 796.625 50.5625C799.5 51.4792 802.375 52.3333 805.25 53.125L796.062 98.375C795.896 99.125 795.75 99.8958 795.625 100.688C795.542 101.479 795.5 102.271 795.5 103.062ZM788.812 68.375C786.104 61.7083 781.167 58.375 774 58.375C770.333 58.375 767.188 59.5833 764.562 62C761.979 64.375 759.854 67.3958 758.188 71.0625C756.562 74.6875 755.354 78.4375 754.562 82.3125C753.812 86.1458 753.438 89.5 753.438 92.375C753.438 97.9583 754.792 102.229 757.5 105.188C760.25 108.104 764.458 109.562 770.125 109.562C771.25 109.562 772.688 109.229 774.438 108.562C776.229 107.854 777.875 106.979 779.375 105.938C780.875 104.854 781.75 103.708 782 102.5L788.812 68.375Z" fill="#EB5424"/>
<path d="M742.188 50.4375C740.271 52.8542 737.896 55 735.062 56.875C732.229 58.7083 729.188 60.1458 725.938 61.1875C722.729 62.2292 719.604 62.75 716.562 62.75C714.729 62.75 713.021 62.3958 711.438 61.6875C709.854 60.9375 708.25 60.2083 706.625 59.5C705.042 58.75 703.354 58.375 701.562 58.375C699.771 58.375 698.188 59.375 696.812 61.375C695.438 63.375 694.229 65.9167 693.188 69C692.146 72.0833 691.25 75.3333 690.5 78.75C689.75 82.125 689.125 85.25 688.625 88.125C688.125 91 687.729 93.1667 687.438 94.625C687.104 96.25 686.708 97.8958 686.25 99.5625C685.833 101.188 685.625 102.854 685.625 104.562C685.625 105.896 685.896 107.062 686.438 108.062C687.021 109.062 688.083 109.562 689.625 109.562C690.625 109.562 691.729 109.312 692.938 108.812C690.896 110.271 689.125 111.792 687.625 113.375C686.125 114.917 684.5 116.229 682.75 117.312C681 118.354 678.688 118.875 675.812 118.875C674.396 118.875 673.125 118.417 672 117.5C670.875 116.625 670.312 115.438 670.312 113.938C670.312 113.562 670.354 113.188 670.438 112.812C671.854 105.688 673.312 98.5625 674.812 91.4375C676.354 84.3125 677.812 77.1875 679.188 70.0625C679.354 69.2292 679.5 68.3958 679.625 67.5625C679.792 66.6875 679.875 65.8333 679.875 65C679.875 62.8333 679.271 61.375 678.062 60.625C676.896 59.875 675.312 59.5 673.312 59.5C671.479 59.5 669.583 59.8125 667.625 60.4375C667.458 60.5208 667.312 60.5833 667.188 60.625C667.188 60.625 667.333 60.5625 667.625 60.4375C669.792 59.6875 671.583 58.75 673 57.625C674.417 56.4583 675.792 55.2917 677.125 54.125C678.5 52.9583 680.083 52 681.875 51.25C683.708 50.4583 686.083 50.0625 689 50.0625C692.958 50.0625 694.938 51.9583 694.938 55.75C694.938 56.5 694.896 57.2292 694.812 57.9375C694.771 58.6458 694.688 59.3542 694.562 60.0625C696.896 58.6875 699.562 57.125 702.562 55.375C705.604 53.625 708.688 52.125 711.812 50.875C714.979 49.5833 717.917 48.9375 720.625 48.9375C722.542 48.9375 724.292 49.3125 725.875 50.0625C727.458 50.7708 728.938 51.5 730.312 52.25C731.729 52.9583 733.104 53.3125 734.438 53.3125C735.688 53.3125 737.021 53 738.438 52.375C739.896 51.7083 741.146 51.0625 742.188 50.4375Z" fill="white"/>
<path d="M660.5 48.375C659.667 48.5 658.583 49.0417 657.25 50C655.958 50.9583 654.542 52.0625 653 53.3125C651.5 54.5208 650.042 55.5833 648.625 56.5C647.25 57.375 646.104 57.8125 645.188 57.8125H636.625L629.25 94.625C629.042 95.6667 628.854 96.7292 628.688 97.8125C628.562 98.8958 628.5 99.9583 628.5 101C628.5 104.167 629.312 106.438 630.938 107.812C632.604 109.146 634.958 109.812 638 109.812C639.583 109.812 641.125 109.562 642.625 109.062C644.167 108.562 645.625 107.979 647 107.312C644.333 110.729 640.875 113.479 636.625 115.562C632.375 117.646 628.062 118.688 623.688 118.688C620.104 118.688 617.562 117.625 616.062 115.5C614.604 113.375 613.875 110.667 613.875 107.375C613.875 106.25 613.938 105.125 614.062 104C614.188 102.875 614.375 101.771 614.625 100.688L623.188 57.8125H614.188L624.75 50.75L626.5 41C628.292 39.75 630.083 38.5417 631.875 37.375C633.708 36.2083 635.583 35.125 637.5 34.125C638.25 33.75 639 33.375 639.75 33C640.542 32.625 641.25 32.1458 641.875 31.5625L638.5 48.375H660.5Z" fill="white"/>
<path d="M611.688 50.4375C609.771 52.8542 607.396 55 604.562 56.875C601.729 58.7083 598.688 60.1458 595.438 61.1875C592.229 62.2292 589.104 62.75 586.062 62.75C584.229 62.75 582.521 62.3958 580.938 61.6875C579.354 60.9375 577.75 60.2083 576.125 59.5C574.542 58.75 572.854 58.375 571.062 58.375C569.271 58.375 567.688 59.375 566.312 61.375C564.938 63.375 563.729 65.9167 562.688 69C561.646 72.0833 560.75 75.3333 560 78.75C559.25 82.125 558.625 85.25 558.125 88.125C557.625 91 557.229 93.1667 556.938 94.625C556.604 96.25 556.208 97.8958 555.75 99.5625C555.333 101.188 555.125 102.854 555.125 104.562C555.125 105.896 555.396 107.062 555.938 108.062C556.521 109.062 557.583 109.562 559.125 109.562C560.125 109.562 561.229 109.312 562.438 108.812C560.396 110.271 558.625 111.792 557.125 113.375C555.625 114.917 554 116.229 552.25 117.312C550.5 118.354 548.188 118.875 545.312 118.875C543.896 118.875 542.625 118.417 541.5 117.5C540.375 116.625 539.812 115.438 539.812 113.938C539.812 113.562 539.854 113.188 539.938 112.812C541.354 105.688 542.812 98.5625 544.312 91.4375C545.854 84.3125 547.312 77.1875 548.688 70.0625C548.854 69.2292 549 68.3958 549.125 67.5625C549.292 66.6875 549.375 65.8333 549.375 65C549.375 62.8333 548.771 61.375 547.562 60.625C546.396 59.875 544.812 59.5 542.812 59.5C540.979 59.5 539.083 59.8125 537.125 60.4375C536.958 60.5208 536.812 60.5833 536.688 60.625C536.688 60.625 536.833 60.5625 537.125 60.4375C539.292 59.6875 541.083 58.75 542.5 57.625C543.917 56.4583 545.292 55.2917 546.625 54.125C548 52.9583 549.583 52 551.375 51.25C553.208 50.4583 555.583 50.0625 558.5 50.0625C562.458 50.0625 564.438 51.9583 564.438 55.75C564.438 56.5 564.396 57.2292 564.312 57.9375C564.271 58.6458 564.188 59.3542 564.062 60.0625C566.396 58.6875 569.062 57.125 572.062 55.375C575.104 53.625 578.188 52.125 581.312 50.875C584.479 49.5833 587.417 48.9375 590.125 48.9375C592.042 48.9375 593.792 49.3125 595.375 50.0625C596.958 50.7708 598.438 51.5 599.812 52.25C601.229 52.9583 602.604 53.3125 603.938 53.3125C605.188 53.3125 606.521 53 607.938 52.375C609.396 51.7083 610.646 51.0625 611.688 50.4375Z" fill="white"/>
<path d="M476 118.562C471.708 118.562 467.938 117.542 464.688 115.5C461.479 113.458 458.979 110.729 457.188 107.312C455.396 103.854 454.5 100.042 454.5 95.875C454.5 91.5 455.458 87.1042 457.375 82.6875C459.333 78.2708 461.979 74.0625 465.312 70.0625C468.646 66.0625 472.396 62.5 476.562 59.375C480.729 56.2083 485.062 53.7292 489.562 51.9375C494.104 50.1042 498.5 49.1875 502.75 49.1875C507.083 49.1875 510.812 50.2083 513.938 52.25C517.104 54.25 519.542 56.9583 521.25 60.375C523 63.7917 523.875 67.5833 523.875 71.75C523.875 76.0833 522.917 80.4792 521 84.9375C519.083 89.3542 516.479 93.5833 513.188 97.625C509.938 101.625 506.25 105.208 502.125 108.375C498 111.5 493.688 113.979 489.188 115.812C484.729 117.646 480.333 118.562 476 118.562ZM487.188 58.5C484.104 58.5 481.479 59.4167 479.312 61.25C477.146 63.0417 475.375 65.3542 474 68.1875C472.625 70.9792 471.625 73.9167 471 77C470.375 80.0417 470.062 82.7917 470.062 85.25C470.062 89.625 470.833 93.6458 472.375 97.3125C473.917 100.938 476.25 103.854 479.375 106.062C482.5 108.271 486.417 109.375 491.125 109.375C494.167 109.375 496.771 108.458 498.938 106.625C501.146 104.75 502.938 102.396 504.312 99.5625C505.688 96.7292 506.688 93.7708 507.312 90.6875C507.979 87.6042 508.312 84.8333 508.312 82.375C508.312 78 507.521 74.0208 505.938 70.4375C504.396 66.8125 502.062 63.9167 498.938 61.75C495.812 59.5833 491.896 58.5 487.188 58.5Z" fill="white"/>
<path d="M395 81.0625C394.292 84.6875 393.562 88.1042 392.812 91.3125C392.062 94.5208 390.896 97.5208 389.312 100.312C387.729 103.104 385.375 105.708 382.25 108.125H404C402.333 108.625 400.583 109.646 398.75 111.188C396.917 112.688 395.125 114.104 393.375 115.438C391.625 116.771 390.062 117.438 388.688 117.438H366.875C369.375 115.562 371.312 113.792 372.688 112.125C374.104 110.417 375.188 108.542 375.938 106.5C376.729 104.458 377.417 101.938 378 98.9375L392.438 27.75H376.5C377.083 27.3333 378.083 26.625 379.5 25.625C380.958 24.5833 382.542 23.5 384.25 22.375C385.958 21.25 387.521 20.2917 388.938 19.5C390.354 18.7083 391.333 18.3125 391.875 18.3125H436.938C442.729 18.3125 447.438 19.625 451.062 22.25C454.688 24.875 456.5 29.2917 456.5 35.5C456.5 41.5 455.167 47.0208 452.5 52.0625C449.875 57.1042 446.438 61.6458 442.188 65.6875C437.938 69.6875 433.375 73.125 428.5 76C425.542 77.7917 422.104 79.0417 418.188 79.75C414.271 80.4167 410.271 80.8125 406.188 80.9375C402.146 81.0208 398.417 81.0625 395 81.0625ZM397.625 68.5C399.5 69.0833 401.854 69.625 404.688 70.125C407.521 70.625 410.354 71.0208 413.188 71.3125C416.062 71.6042 418.479 71.75 420.438 71.75C424.896 71.75 428.646 70.625 431.688 68.375C434.729 66.125 437.021 63.1875 438.562 59.5625C440.104 55.9375 440.875 52.0625 440.875 47.9375C440.875 43.3542 439.708 39.7292 437.375 37.0625C435.083 34.3542 432.125 32.3333 428.5 31C424.875 29.6667 421.042 28.7917 417 28.375C412.958 27.9583 409.229 27.75 405.812 27.75L397.625 68.5Z" fill="white"/>
<path d="M263.438 91.75C263.688 96.0833 264.938 99.5208 267.188 102.062C269.438 104.562 272.292 106.375 275.75 107.5C279.25 108.583 282.896 109.125 286.688 109.125C290.146 109.125 293.604 108.729 297.062 107.938C300.562 107.104 303.917 106.042 307.125 104.75C304.083 107.458 300.542 109.854 296.5 111.938C292.5 113.979 288.312 115.583 283.938 116.75C279.604 117.875 275.396 118.438 271.312 118.438C267.146 118.438 263.333 117.5 259.875 115.625C256.458 113.708 253.708 111.104 251.625 107.812C249.583 104.479 248.562 100.688 248.562 96.4375C248.562 94.9792 248.708 93.5625 249 92.1875C249.833 88.0625 251.5 84.0625 254 80.1875C256.542 76.3125 259.583 72.6875 263.125 69.3125C266.667 65.9375 270.417 62.9583 274.375 60.375C278.333 57.7917 282.146 55.7292 285.812 54.1875C288.938 52.8542 292.167 51.8125 295.5 51.0625C298.875 50.2708 302.271 49.875 305.688 49.875C308.188 49.875 310.438 50.6042 312.438 52.0625C314.479 53.4792 315.5 55.5417 315.5 58.25C315.5 60.625 314.5 63 312.5 65.375C310.5 67.7083 307.854 69.9792 304.562 72.1875C301.271 74.3958 297.667 76.5 293.75 78.5C289.833 80.4583 285.917 82.2917 282 84C278.083 85.7083 274.479 87.2292 271.188 88.5625C267.938 89.8542 265.354 90.9167 263.438 91.75ZM288.125 59.625C282.542 59.625 277.958 61 274.375 63.75C270.792 66.4583 268.104 70 266.312 74.375C264.562 78.75 263.604 83.4167 263.438 88.375C264.854 88.0833 267 87.4375 269.875 86.4375C272.792 85.3958 275.979 84.125 279.438 82.625C282.938 81.0833 286.271 79.4375 289.438 77.6875C292.604 75.8958 295.208 74.1042 297.25 72.3125C299.333 70.5208 300.375 68.8333 300.375 67.25C300.375 65.5417 299.646 64.125 298.188 63C296.729 61.8333 295.021 60.9792 293.062 60.4375C291.146 59.8958 289.5 59.625 288.125 59.625Z" fill="white"/>
<path d="M225.812 103.125C225.812 105.375 226.396 106.938 227.562 107.812C228.771 108.688 230.438 109.125 232.562 109.125C233.979 109.125 235.354 108.979 236.688 108.688C234.812 110.021 232.812 111.458 230.688 113C228.604 114.542 226.417 115.854 224.125 116.938C221.875 118.021 219.521 118.562 217.062 118.562C215.104 118.562 213.5 118.188 212.25 117.438C211 116.729 210.375 115.292 210.375 113.125C210.375 112.333 210.438 111.542 210.562 110.75C210.688 109.958 210.833 109.188 211 108.438C208.667 109.896 206.104 111.438 203.312 113.062C200.521 114.688 197.646 116.062 194.688 117.188C191.729 118.312 188.833 118.875 186 118.875C179.583 118.875 174.542 117.083 170.875 113.5C167.25 109.875 165.438 104.833 165.438 98.375C165.438 93.25 166.458 88.2708 168.5 83.4375C170.542 78.6042 173.312 74.125 176.812 70C180.354 65.8333 184.375 62.2083 188.875 59.125C193.375 56 198.125 53.5625 203.125 51.8125C208.167 50.0625 213.167 49.1875 218.125 49.1875C219.875 49.1875 221.458 49.3333 222.875 49.625L227.812 24.8125C228.062 23.6042 228.188 22.5 228.188 21.5C228.188 19.9167 227.833 18.6458 227.125 17.6875C226.417 16.6875 225.208 16.1875 223.5 16.1875C222.458 16.1875 221.417 16.2917 220.375 16.5C219.333 16.7083 218.333 16.9375 217.375 17.1875C222 14.1042 226.688 11.0417 231.438 8C236.188 4.95833 241.125 2.29167 246.25 0L226.375 98.375C226.208 99.1667 226.062 99.9583 225.938 100.75C225.854 101.542 225.812 102.333 225.812 103.125ZM219.125 68.375C217.625 64.9583 215.312 62.4375 212.188 60.8125C209.104 59.1875 205.771 58.375 202.188 58.375C198.229 58.375 194.875 59.3333 192.125 61.25C189.417 63.125 187.208 65.5833 185.5 68.625C183.833 71.6667 182.604 74.9583 181.812 78.5C181.062 82.0417 180.688 85.4375 180.688 88.6875C180.688 95.1458 182.312 100.25 185.562 104C188.812 107.708 193.771 109.562 200.438 109.562C201.562 109.562 203 109.229 204.75 108.562C206.542 107.854 208.188 106.958 209.688 105.875C211.188 104.792 212.062 103.667 212.312 102.5L219.125 68.375Z" fill="white"/>
<path d="M106 118.562C101.708 118.562 97.9375 117.542 94.6875 115.5C91.4792 113.458 88.9792 110.729 87.1875 107.312C85.3958 103.854 84.5 100.042 84.5 95.875C84.5 91.5 85.4583 87.1042 87.375 82.6875C89.3333 78.2708 91.9792 74.0625 95.3125 70.0625C98.6458 66.0625 102.396 62.5 106.562 59.375C110.729 56.2083 115.062 53.7292 119.562 51.9375C124.104 50.1042 128.5 49.1875 132.75 49.1875C137.083 49.1875 140.812 50.2083 143.938 52.25C147.104 54.25 149.542 56.9583 151.25 60.375C153 63.7917 153.875 67.5833 153.875 71.75C153.875 76.0833 152.917 80.4792 151 84.9375C149.083 89.3542 146.479 93.5833 143.188 97.625C139.938 101.625 136.25 105.208 132.125 108.375C128 111.5 123.688 113.979 119.188 115.812C114.729 117.646 110.333 118.562 106 118.562ZM117.188 58.5C114.104 58.5 111.479 59.4167 109.312 61.25C107.146 63.0417 105.375 65.3542 104 68.1875C102.625 70.9792 101.625 73.9167 101 77C100.375 80.0417 100.062 82.7917 100.062 85.25C100.062 89.625 100.833 93.6458 102.375 97.3125C103.917 100.938 106.25 103.854 109.375 106.062C112.5 108.271 116.417 109.375 121.125 109.375C124.167 109.375 126.771 108.458 128.938 106.625C131.146 104.75 132.938 102.396 134.312 99.5625C135.688 96.7292 136.688 93.7708 137.312 90.6875C137.979 87.6042 138.312 84.8333 138.312 82.375C138.312 78 137.521 74.0208 135.938 70.4375C134.396 66.8125 132.062 63.9167 128.938 61.75C125.812 59.5833 121.896 58.5 117.188 58.5Z" fill="white"/>
<path d="M100.688 20.3125C100.688 20.6875 99.8333 21.4583 98.125 22.625C96.4583 23.7917 94.4792 25.0833 92.1875 26.5C89.8958 27.875 87.75 29.125 85.75 30.25C83.75 31.375 82.4583 32.1042 81.875 32.4375C82.125 32.2292 82.7292 31.75 83.6875 31C84.6458 30.25 85.125 29.7292 85.125 29.4375C85.125 28.6875 84.25 28.0417 82.5 27.5C80.75 26.9583 78.6667 26.5208 76.25 26.1875C73.875 25.8125 71.625 25.5417 69.5 25.375C67.375 25.1667 65.9583 25.0625 65.25 25.0625C55.4167 25.0625 46.8333 27.1667 39.5 31.375C32.1667 35.5417 26.4583 41.3542 22.375 48.8125C18.3333 56.2292 16.3125 64.8542 16.3125 74.6875C16.3125 81.3958 17.5 87.4792 19.875 92.9375C22.2917 98.3958 25.875 102.75 30.625 106C35.4167 109.208 41.3958 110.812 48.5625 110.812C51.8125 110.812 55.3333 110.417 59.125 109.625C62.9167 108.792 66.6667 107.771 70.375 106.562C74.0833 105.354 77.4375 104.146 80.4375 102.938C76.3125 106.312 71.5625 109.312 66.1875 111.938C60.8125 114.562 55.2083 116.625 49.375 118.125C43.5833 119.625 38.0208 120.375 32.6875 120.375C25.8542 120.375 20.0625 118.896 15.3125 115.938C10.5625 112.938 6.95833 108.854 4.5 103.688C2.04167 98.5208 0.8125 92.6667 0.8125 86.125C0.8125 78.2083 2.39583 70.7083 5.5625 63.625C8.72917 56.5417 13.0417 50.0833 18.5 44.25C23.9583 38.375 30.1458 33.3125 37.0625 29.0625C43.9792 24.7708 51.25 21.4583 58.875 19.125C66.5 16.7917 74.0208 15.625 81.4375 15.625C82.1042 15.625 83.4583 15.7292 85.5 15.9375C87.5417 16.1042 89.7292 16.3958 92.0625 16.8125C94.3958 17.1875 96.4167 17.6667 98.125 18.25C99.8333 18.8333 100.688 19.5208 100.688 20.3125Z" fill="white"/>
</svg>
