<svg width="108" height="14" viewBox="0 0 108 14" fill="none" xmlns="http://www.w3.org/2000/svg">
<path d="M106.076 7.08686C106.104 7.06379 106.132 7.04302 106.159 7.02457C106.229 6.95536 106.263 6.88846 106.263 6.82386C106.263 6.72697 106.192 6.65545 106.049 6.60932C105.906 6.56318 105.749 6.53319 105.578 6.51934C105.412 6.50089 105.294 6.49166 105.225 6.49166C104.934 6.49166 104.704 6.55856 104.533 6.69237C104.367 6.82617 104.284 7.04764 104.284 7.35677C104.284 7.61054 104.36 7.81355 104.512 7.96581C104.664 8.11345 104.861 8.23341 105.1 8.32569C105.34 8.41797 105.594 8.50333 105.862 8.58177C106.134 8.6602 106.39 8.75248 106.63 8.8586C106.87 8.96011 107.066 9.09622 107.218 9.26693C107.375 9.43765 107.454 9.66604 107.454 9.9521C107.454 10.3074 107.345 10.6465 107.128 10.9695C106.916 11.2924 106.637 11.59 106.291 11.8623C105.949 12.1299 105.573 12.3652 105.163 12.5682C104.757 12.7666 104.355 12.9188 103.959 13.025C103.562 13.1357 103.211 13.1911 102.907 13.1911C102.782 13.1911 102.604 13.1703 102.374 13.1288C102.143 13.0919 101.933 13.0273 101.744 12.935C101.555 12.8381 101.46 12.7066 101.46 12.5405C101.46 12.3929 101.536 12.2521 101.688 12.1183C101.841 11.9845 102.023 11.86 102.235 11.7446C102.452 11.6293 102.662 11.5208 102.865 11.4193C103.073 11.3178 103.227 11.2209 103.329 11.1286C103.278 11.1794 103.232 11.2417 103.19 11.3155C103.153 11.3847 103.135 11.4562 103.135 11.5301C103.135 11.6592 103.197 11.7654 103.322 11.8484C103.451 11.9269 103.608 11.9868 103.792 12.0284C103.977 12.0699 104.157 12.0976 104.332 12.1114C104.508 12.1253 104.641 12.1322 104.734 12.1322C105.052 12.1322 105.301 12.0422 105.481 11.8623C105.666 11.6823 105.758 11.4332 105.758 11.1148C105.758 10.8518 105.682 10.635 105.53 10.4642C105.377 10.2935 105.181 10.1528 104.941 10.0421C104.706 9.93134 104.455 9.83214 104.187 9.74447C103.919 9.65219 103.666 9.553 103.426 9.44688C103.19 9.34076 102.997 9.21157 102.844 9.05931C102.692 8.90705 102.616 8.70865 102.616 8.46411C102.616 8.18266 102.722 7.89891 102.934 7.61284C103.146 7.32678 103.419 7.05456 103.751 6.79618C104.088 6.5378 104.448 6.30941 104.831 6.11101C105.218 5.908 105.592 5.74882 105.952 5.63347C106.312 5.51812 106.616 5.46045 106.865 5.46045C106.958 5.46045 107.082 5.46737 107.239 5.48121C107.401 5.49505 107.55 5.52735 107.689 5.5781C107.832 5.62886 107.917 5.7096 107.945 5.82033C107.908 5.9403 107.837 6.03258 107.73 6.09717C107.624 6.16176 107.52 6.22175 107.419 6.27711C107.202 6.39246 106.988 6.51012 106.775 6.63008C106.563 6.74543 106.358 6.87692 106.159 7.02457C106.132 7.05225 106.104 7.07301 106.076 7.08686Z" fill="#060606"/>
<path d="M102.325 5.35683C102.233 5.37068 102.113 5.43066 101.965 5.53678C101.822 5.6429 101.665 5.76517 101.495 5.90358C101.329 6.03739 101.167 6.15504 101.01 6.25655C100.858 6.35344 100.731 6.40189 100.63 6.40189H99.6814L98.8648 10.4783C98.8417 10.5936 98.8209 10.7113 98.8025 10.8312C98.7886 10.9512 98.7817 11.0689 98.7817 11.1842C98.7817 11.5349 98.8717 11.7863 99.0516 11.9386C99.2362 12.0862 99.4969 12.1601 99.8337 12.1601C100.009 12.1601 100.18 12.1324 100.346 12.077C100.517 12.0216 100.678 11.957 100.83 11.8832C100.535 12.2616 100.152 12.5661 99.6814 12.7968C99.2108 13.0275 98.7333 13.1428 98.2488 13.1428C97.852 13.1428 97.5706 13.0252 97.4045 12.7899C97.243 12.5545 97.1622 12.2546 97.1622 11.8901C97.1622 11.7656 97.1692 11.641 97.183 11.5164C97.1968 11.3918 97.2176 11.2696 97.2453 11.1496L98.1934 6.40189H97.1968L98.3665 5.61983L98.5602 4.54017C98.7586 4.40175 98.957 4.26795 99.1554 4.13876C99.3585 4.00957 99.5661 3.88961 99.7783 3.77887C99.8614 3.73735 99.9444 3.69582 100.027 3.6543C100.115 3.61277 100.194 3.55971 100.263 3.49512L99.8891 5.35683H102.325Z" fill="#060606"/>
<path d="M95.9096 0.0622559C95.8865 0.200673 95.8588 0.373695 95.8265 0.581322C95.7988 0.788948 95.7619 0.996575 95.7158 1.2042C95.6742 1.41183 95.6212 1.58254 95.5566 1.71635C95.5427 1.74403 95.4597 1.80632 95.3074 1.90321C95.1598 2.0001 94.9845 2.10853 94.7815 2.22849C94.5831 2.34845 94.3962 2.45919 94.2209 2.56069C94.0501 2.65759 93.9371 2.72449 93.8817 2.7614L94.207 1.10731L95.9096 0.0622559ZM93.7018 11.4609C93.7018 11.7332 93.7872 11.9108 93.9579 11.9939C94.1332 12.0723 94.3385 12.1115 94.5738 12.1115C94.7445 12.1115 94.9083 12.0977 95.0652 12.07C94.8576 12.2176 94.6361 12.3745 94.4008 12.5406C94.1701 12.7067 93.9279 12.8497 93.6741 12.9697C93.4203 13.085 93.162 13.1427 92.899 13.1427C92.636 13.1427 92.4237 13.092 92.2623 12.9905C92.1054 12.889 92.0269 12.6952 92.0269 12.4091C92.0269 12.3307 92.0316 12.2545 92.0408 12.1807C92.05 12.1023 92.0639 12.0238 92.0823 11.9454L92.8159 8.31886C92.8344 8.22197 92.8505 8.12508 92.8644 8.02819C92.8828 7.9313 92.8921 7.8344 92.8921 7.73751C92.8921 7.5668 92.8528 7.42607 92.7744 7.31534C92.7006 7.2046 92.5691 7.14924 92.3799 7.14924C92.2646 7.14924 92.1492 7.16077 92.0339 7.18384C91.9231 7.2023 91.8124 7.22306 91.7017 7.24613C92.2276 6.91393 92.7536 6.57942 93.2796 6.2426C93.8056 5.90117 94.35 5.59896 94.9129 5.33597L93.7433 11.1149C93.7156 11.2441 93.7018 11.3594 93.7018 11.4609Z" fill="#060606"/>
<path d="M87.999 11.4126C87.999 11.6571 88.0636 11.8301 88.1928 11.9316C88.322 12.0331 88.5065 12.0839 88.7465 12.0839C88.9033 12.0839 89.0556 12.0678 89.2032 12.0355C89.0048 12.1877 88.788 12.3492 88.5527 12.5199C88.322 12.6906 88.0798 12.836 87.826 12.9559C87.5768 13.0713 87.3185 13.129 87.0509 13.129C86.8294 13.129 86.6471 13.0897 86.5041 13.0113C86.3657 12.9329 86.2965 12.7691 86.2965 12.5199C86.2965 12.4323 86.3011 12.3469 86.3103 12.2638C86.3242 12.1762 86.3403 12.0908 86.3588 12.0078C86.1096 12.1693 85.8489 12.34 85.5767 12.5199C85.3045 12.6999 85.023 12.8521 84.7324 12.9767C84.4417 13.1013 84.1395 13.1636 83.8257 13.1636C83.129 13.1636 82.5984 12.9721 82.2339 12.5891C81.874 12.2016 81.6941 11.664 81.6941 10.9766C81.6941 10.2752 81.844 9.597 82.1439 8.94182C82.4439 8.28203 82.8499 7.68914 83.362 7.16316C83.8788 6.63717 84.4624 6.21961 85.113 5.91048C85.7682 5.60134 86.4464 5.44678 87.1477 5.44678C87.4846 5.44678 87.8098 5.49753 88.1236 5.59904C88.4419 5.70054 88.7603 5.79513 89.0787 5.88279L88.0613 10.8935C88.0428 10.9766 88.0267 11.0619 88.0129 11.1496C88.0036 11.2372 87.999 11.3249 87.999 11.4126ZM87.2585 7.57149C86.9586 6.83326 86.4118 6.46415 85.6182 6.46415C85.2122 6.46415 84.8639 6.59795 84.5732 6.86556C84.2871 7.12855 84.0518 7.46306 83.8672 7.86909C83.6873 8.2705 83.5535 8.68575 83.4658 9.11484C83.3828 9.53932 83.3413 9.91074 83.3413 10.2291C83.3413 10.8474 83.4912 11.3203 83.7911 11.6479C84.0956 11.9709 84.5616 12.1323 85.1891 12.1323C85.3137 12.1323 85.4729 12.0954 85.6667 12.0216C85.8651 11.9432 86.0473 11.8463 86.2134 11.7309C86.3795 11.611 86.4764 11.4841 86.5041 11.3503L87.2585 7.57149Z" fill="#DE7272"/>
<path d="M82.0955 5.58505C81.8832 5.85265 81.6202 6.09027 81.3065 6.2979C80.9927 6.50091 80.6559 6.66009 80.296 6.77544C79.9408 6.89079 79.5947 6.94846 79.2579 6.94846C79.0549 6.94846 78.8657 6.90924 78.6904 6.8308C78.5151 6.74775 78.3374 6.66701 78.1575 6.58857C77.9822 6.50552 77.7953 6.464 77.5969 6.464C77.3985 6.464 77.2232 6.57473 77.0709 6.7962C76.9186 7.01767 76.7848 7.29912 76.6695 7.64055C76.5541 7.98198 76.4549 8.34186 76.3719 8.7202C76.2888 9.09393 76.2196 9.43998 76.1643 9.75834C76.1089 10.0767 76.0651 10.3166 76.0328 10.4781C75.9959 10.6581 75.952 10.8403 75.9013 11.0249C75.8551 11.2048 75.8321 11.3894 75.8321 11.5785C75.8321 11.7262 75.8621 11.8554 75.922 11.9661C75.9866 12.0768 76.1043 12.1322 76.275 12.1322C76.3857 12.1322 76.508 12.1045 76.6418 12.0491C76.4157 12.2106 76.2196 12.379 76.0535 12.5544C75.8874 12.7251 75.7075 12.8704 75.5137 12.9904C75.3199 13.1057 75.0638 13.1634 74.7455 13.1634C74.5886 13.1634 74.4479 13.1127 74.3233 13.0111C74.1987 12.9143 74.1364 12.7828 74.1364 12.6167C74.1364 12.5751 74.1411 12.5336 74.1503 12.4921C74.3072 11.7031 74.4687 10.9141 74.6348 10.1251C74.8055 9.33616 74.967 8.54718 75.1192 7.7582C75.1377 7.66592 75.1538 7.57365 75.1677 7.48137C75.1861 7.38447 75.1953 7.28989 75.1953 7.19761C75.1953 6.95769 75.1284 6.7962 74.9946 6.71315C74.8654 6.6301 74.6901 6.58857 74.4687 6.58857C74.2656 6.58857 74.0557 6.62318 73.8389 6.69239C73.8204 6.70161 73.8042 6.70854 73.7904 6.71315C73.7904 6.71315 73.8066 6.70623 73.8389 6.69239C74.0788 6.60934 74.2772 6.50552 74.434 6.38095C74.5909 6.25176 74.7432 6.12257 74.8908 5.99338C75.0431 5.86419 75.2184 5.75807 75.4168 5.67502C75.6198 5.58735 75.8828 5.54352 76.2058 5.54352C76.6441 5.54352 76.8633 5.75345 76.8633 6.17332C76.8633 6.25637 76.8587 6.33712 76.8494 6.41555C76.8448 6.49399 76.8356 6.57243 76.8218 6.65086C77.0801 6.4986 77.3754 6.32558 77.7076 6.1318C78.0444 5.93801 78.3859 5.77191 78.7319 5.63349C79.0826 5.49046 79.4079 5.41895 79.7078 5.41895C79.92 5.41895 80.1138 5.46047 80.2891 5.54352C80.4644 5.62196 80.6282 5.7027 80.7805 5.78575C80.9374 5.86419 81.0896 5.90341 81.2373 5.90341C81.3757 5.90341 81.5233 5.8688 81.6802 5.79959C81.8417 5.72577 81.9801 5.65426 82.0955 5.58505Z" fill="#060606"/>
<path d="M73.0498 5.35683C72.9575 5.37068 72.8376 5.43066 72.6899 5.53678C72.5469 5.6429 72.39 5.76517 72.2193 5.90358C72.0532 6.03739 71.8917 6.15504 71.7348 6.25655C71.5826 6.35344 71.4557 6.40189 71.3542 6.40189H70.406L69.5894 10.4783C69.5663 10.5936 69.5455 10.7113 69.5271 10.8312C69.5132 10.9512 69.5063 11.0689 69.5063 11.1842C69.5063 11.5349 69.5963 11.7863 69.7762 11.9386C69.9608 12.0862 70.2215 12.1601 70.5583 12.1601C70.7336 12.1601 70.9043 12.1324 71.0704 12.077C71.2412 12.0216 71.4026 11.957 71.5549 11.8832C71.2596 12.2616 70.8767 12.5661 70.406 12.7968C69.9354 13.0275 69.4579 13.1428 68.9734 13.1428C68.5766 13.1428 68.2952 13.0252 68.1291 12.7899C67.9676 12.5545 67.8868 12.2546 67.8868 11.8901C67.8868 11.7656 67.8938 11.641 67.9076 11.5164C67.9214 11.3918 67.9422 11.2696 67.9699 11.1496L68.9181 6.40189H67.9214L69.0911 5.61983L69.2849 4.54017C69.4833 4.40175 69.6817 4.26795 69.8801 4.13876C70.0831 4.00957 70.2907 3.88961 70.5029 3.77887C70.586 3.73735 70.669 3.69582 70.7521 3.6543C70.8397 3.61277 70.9182 3.55971 70.9874 3.49512L70.6137 5.35683H73.0498Z" fill="#060606"/>
<path d="M67.6447 5.58505C67.4324 5.85265 67.1694 6.09027 66.8557 6.2979C66.5419 6.50091 66.2051 6.66009 65.8452 6.77544C65.49 6.89079 65.1439 6.94846 64.8071 6.94846C64.6041 6.94846 64.4149 6.90924 64.2396 6.8308C64.0643 6.74775 63.8866 6.66701 63.7067 6.58857C63.5313 6.50552 63.3445 6.464 63.1461 6.464C62.9477 6.464 62.7724 6.57473 62.6201 6.7962C62.4678 7.01767 62.334 7.29912 62.2187 7.64055C62.1033 7.98198 62.0041 8.34186 61.9211 8.7202C61.838 9.09393 61.7688 9.43998 61.7135 9.75834C61.6581 10.0767 61.6143 10.3166 61.582 10.4781C61.5451 10.6581 61.5012 10.8403 61.4505 11.0249C61.4043 11.2048 61.3813 11.3894 61.3813 11.5785C61.3813 11.7262 61.4112 11.8554 61.4712 11.9661C61.5358 12.0768 61.6535 12.1322 61.8242 12.1322C61.9349 12.1322 62.0572 12.1045 62.191 12.0491C61.9649 12.2106 61.7688 12.379 61.6027 12.5544C61.4366 12.7251 61.2567 12.8704 61.0629 12.9904C60.8691 13.1057 60.613 13.1634 60.2947 13.1634C60.1378 13.1634 59.9971 13.1127 59.8725 13.0111C59.7479 12.9143 59.6856 12.7828 59.6856 12.6167C59.6856 12.5751 59.6903 12.5336 59.6995 12.4921C59.8564 11.7031 60.0178 10.9141 60.1839 10.1251C60.3547 9.33616 60.5161 8.54718 60.6684 7.7582C60.6869 7.66592 60.703 7.57365 60.7169 7.48137C60.7353 7.38447 60.7445 7.28989 60.7445 7.19761C60.7445 6.95769 60.6776 6.7962 60.5438 6.71315C60.4146 6.6301 60.2393 6.58857 60.0178 6.58857C59.8148 6.58857 59.6049 6.62318 59.388 6.69239C59.3696 6.70161 59.3534 6.70854 59.3396 6.71315C59.3396 6.71315 59.3557 6.70623 59.388 6.69239C59.628 6.60934 59.8264 6.50552 59.9832 6.38095C60.1401 6.25176 60.2924 6.12257 60.44 5.99338C60.5923 5.86419 60.7676 5.75807 60.966 5.67502C61.169 5.58735 61.432 5.54352 61.755 5.54352C62.1933 5.54352 62.4125 5.75345 62.4125 6.17332C62.4125 6.25637 62.4079 6.33712 62.3986 6.41555C62.394 6.49399 62.3848 6.57243 62.3709 6.65086C62.6293 6.4986 62.9246 6.32558 63.2568 6.1318C63.5936 5.93801 63.9351 5.77191 64.2811 5.63349C64.6318 5.49046 64.957 5.41895 65.257 5.41895C65.4692 5.41895 65.663 5.46047 65.8383 5.54352C66.0136 5.62196 66.1774 5.7027 66.3297 5.78575C66.4866 5.86419 66.6388 5.90341 66.7865 5.90341C66.9249 5.90341 67.0725 5.8688 67.2294 5.79959C67.3909 5.72577 67.5293 5.65426 67.6447 5.58505Z" fill="#060606"/>
<path d="M52.6194 13.129C52.1442 13.129 51.7266 13.0159 51.3668 12.7898C51.0115 12.5637 50.7346 12.2615 50.5362 11.8832C50.3378 11.5002 50.2386 11.0781 50.2386 10.6167C50.2386 10.1322 50.3448 9.64544 50.557 9.15637C50.7739 8.66729 51.0668 8.20129 51.436 7.75835C51.8051 7.31541 52.2203 6.92092 52.6817 6.57488C53.1431 6.22422 53.623 5.94969 54.1213 5.7513C54.6242 5.54828 55.1109 5.44678 55.5816 5.44678C56.0614 5.44678 56.4744 5.55982 56.8204 5.7859C57.1711 6.00737 57.441 6.30727 57.6301 6.68561C57.8239 7.06396 57.9208 7.48382 57.9208 7.94521C57.9208 8.42506 57.8147 8.91183 57.6025 9.40552C57.3902 9.8946 57.1019 10.3629 56.7374 10.8105C56.3775 11.2534 55.9691 11.6502 55.5124 12.0008C55.0556 12.3469 54.578 12.6214 54.0797 12.8244C53.586 13.0274 53.0993 13.129 52.6194 13.129ZM53.8583 6.47799C53.5168 6.47799 53.2262 6.57949 52.9862 6.78251C52.7463 6.98091 52.5502 7.23698 52.398 7.55072C52.2457 7.85986 52.135 8.18514 52.0658 8.52657C51.9966 8.86338 51.9619 9.1679 51.9619 9.44012C51.9619 9.92459 52.0473 10.3698 52.218 10.7759C52.3887 11.1773 52.6471 11.5002 52.9932 11.7448C53.3392 11.9893 53.7729 12.1116 54.2943 12.1116C54.6311 12.1116 54.9195 12.0101 55.1594 11.8071C55.4039 11.5994 55.6023 11.3388 55.7546 11.025C55.9068 10.7113 56.0176 10.3837 56.0868 10.0422C56.1606 9.70081 56.1975 9.39399 56.1975 9.12176C56.1975 8.6373 56.1099 8.19667 55.9345 7.79988C55.7638 7.39847 55.5054 7.0778 55.1594 6.83787C54.8133 6.59795 54.3796 6.47799 53.8583 6.47799Z" fill="#060606"/>
<path d="M43.65 8.97639C43.5716 9.37781 43.4909 9.75615 43.4078 10.1114C43.3248 10.4667 43.1956 10.7989 43.0202 11.108C42.8449 11.4172 42.5842 11.7055 42.2382 11.9731H44.6466C44.4621 12.0285 44.2683 12.1415 44.0653 12.3123C43.8623 12.4784 43.6639 12.6352 43.4701 12.7829C43.2763 12.9305 43.1033 13.0043 42.951 13.0043H40.5356C40.8125 12.7967 41.027 12.6006 41.1793 12.4161C41.3362 12.2269 41.4561 12.0193 41.5392 11.7932C41.6268 11.5671 41.703 11.288 41.7676 10.9558L43.3663 3.07288H41.6015C41.6661 3.02675 41.7768 2.94831 41.9337 2.83757C42.0951 2.72223 42.2705 2.60226 42.4596 2.47769C42.6488 2.35311 42.8218 2.24699 42.9787 2.15933C43.1356 2.07166 43.244 2.02783 43.304 2.02783H48.294C48.9353 2.02783 49.4567 2.17317 49.8581 2.46385C50.2595 2.75452 50.4602 3.2436 50.4602 3.93107C50.4602 4.59548 50.3125 5.20682 50.0172 5.76511C49.7266 6.32339 49.3459 6.82631 48.8753 7.27386C48.4047 7.71679 47.8995 8.09744 47.3596 8.4158C47.032 8.6142 46.6514 8.75262 46.2177 8.83106C45.784 8.90488 45.341 8.94871 44.8889 8.96255C44.4413 8.97178 44.0284 8.97639 43.65 8.97639ZM43.9407 7.5853C44.1483 7.64989 44.409 7.70987 44.7228 7.76524C45.0365 7.82061 45.3503 7.86444 45.664 7.89674C45.9824 7.92903 46.25 7.94518 46.4668 7.94518C46.9605 7.94518 47.3758 7.82061 47.7126 7.57146C48.0494 7.3223 48.3032 6.99702 48.4739 6.59561C48.6446 6.1942 48.73 5.76511 48.73 5.30833C48.73 4.8008 48.6008 4.39939 48.3424 4.1041C48.0886 3.80419 47.761 3.58042 47.3596 3.43277C46.9582 3.28513 46.5337 3.18823 46.0862 3.14209C45.6386 3.09595 45.2257 3.07288 44.8474 3.07288L43.9407 7.5853Z" fill="#060606"/>
<path d="M29.0815 10.1599C29.1092 10.6398 29.2476 11.0204 29.4967 11.3019C29.7459 11.5787 30.062 11.7794 30.4449 11.904C30.8325 12.024 31.2362 12.0839 31.6561 12.0839C32.039 12.0839 32.422 12.0401 32.8049 11.9524C33.1925 11.8602 33.5639 11.7425 33.9192 11.5995C33.5824 11.8994 33.1902 12.1647 32.7426 12.3954C32.2997 12.6215 31.836 12.7991 31.3515 12.9283C30.8717 13.0529 30.4057 13.1152 29.9535 13.1152C29.4921 13.1152 29.07 13.0113 28.687 12.8037C28.3087 12.5915 28.0041 12.3031 27.7734 11.9386C27.5474 11.5695 27.4343 11.1496 27.4343 10.679C27.4343 10.5175 27.4505 10.3606 27.4828 10.2084C27.5751 9.75161 27.7596 9.30867 28.0364 8.87958C28.3179 8.45048 28.6547 8.04907 29.0469 7.67534C29.4391 7.30162 29.8543 6.97172 30.2926 6.68566C30.731 6.39959 31.1531 6.1712 31.5592 6.00049C31.9052 5.85284 32.2628 5.7375 32.6319 5.65445C33.0056 5.56678 33.3817 5.52295 33.76 5.52295C34.0368 5.52295 34.286 5.60369 34.5075 5.76518C34.7335 5.92205 34.8466 6.15044 34.8466 6.45035C34.8466 6.71334 34.7359 6.97633 34.5144 7.23933C34.2929 7.49771 33.9999 7.74917 33.6354 7.9937C33.2709 8.23824 32.8718 8.47124 32.4381 8.69271C32.0044 8.90957 31.5707 9.11258 31.137 9.30175C30.7033 9.49092 30.3042 9.65933 29.9397 9.80697C29.5798 9.95 29.2937 10.0677 29.0815 10.1599ZM31.8152 6.60261C31.197 6.60261 30.6894 6.75487 30.2926 7.05938C29.8959 7.35929 29.5983 7.75147 29.3999 8.23593C29.2061 8.7204 29.1 9.23715 29.0815 9.78621C29.2384 9.75391 29.476 9.6824 29.7943 9.57166C30.1173 9.45632 30.4703 9.31559 30.8532 9.14949C31.2408 8.97877 31.6099 8.79653 31.9606 8.60274C32.3112 8.40434 32.5996 8.20594 32.8257 8.00754C33.0564 7.80915 33.1717 7.62228 33.1717 7.44695C33.1717 7.25778 33.091 7.10091 32.9295 6.97633C32.768 6.84714 32.5788 6.75256 32.362 6.69258C32.1498 6.6326 31.9675 6.60261 31.8152 6.60261Z" fill="#060606"/>
<path d="M24.9151 11.4195C24.9151 11.6686 24.9797 11.8416 25.1088 11.9385C25.2426 12.0354 25.4272 12.0839 25.6625 12.0839C25.8194 12.0839 25.9716 12.0677 26.1193 12.0354C25.9117 12.1831 25.6902 12.3422 25.4549 12.5129C25.2242 12.6837 24.982 12.829 24.7282 12.949C24.479 13.0689 24.2184 13.1289 23.9461 13.1289C23.7293 13.1289 23.5516 13.0874 23.4132 13.0043C23.2748 12.9259 23.2056 12.7667 23.2056 12.5268C23.2056 12.4391 23.2125 12.3515 23.2264 12.2638C23.2402 12.1761 23.2564 12.0908 23.2748 12.0077C23.0164 12.1692 22.7327 12.3399 22.4235 12.5199C22.1144 12.6998 21.7961 12.8521 21.4685 12.9766C21.1409 13.1012 20.8202 13.1635 20.5065 13.1635C19.7959 13.1635 19.2376 12.9651 18.8316 12.5683C18.4302 12.1669 18.2295 11.6086 18.2295 10.8935C18.2295 10.326 18.3425 9.77459 18.5686 9.23937C18.7947 8.70416 19.1015 8.20816 19.4891 7.75138C19.8813 7.28999 20.3265 6.88858 20.8248 6.54715C21.3231 6.20111 21.8491 5.93119 22.4028 5.73741C22.9611 5.54362 23.5147 5.44673 24.0638 5.44673C24.2576 5.44673 24.4329 5.46288 24.5898 5.49518L25.1365 2.74759C25.1642 2.61379 25.1781 2.49152 25.1781 2.38078C25.1781 2.20545 25.1388 2.06473 25.0604 1.95861C24.982 1.84787 24.8482 1.79251 24.659 1.79251C24.5436 1.79251 24.4283 1.80404 24.3129 1.82711C24.1976 1.85018 24.0869 1.87556 23.9807 1.90324C24.4929 1.56181 25.012 1.22269 25.5379 0.885873C26.0639 0.549056 26.6107 0.253766 27.1782 0L24.9773 10.8935C24.9589 10.9811 24.9427 11.0688 24.9289 11.1565C24.9197 11.2441 24.9151 11.3318 24.9151 11.4195ZM24.1745 7.57144C24.0084 7.1931 23.7524 6.91396 23.4063 6.73402C23.0649 6.55407 22.6958 6.4641 22.299 6.4641C21.8606 6.4641 21.4892 6.57022 21.1847 6.78246C20.8848 6.99009 20.6403 7.26231 20.4511 7.59913C20.2665 7.93594 20.1304 8.30044 20.0428 8.69262C19.9597 9.08481 19.9182 9.46084 19.9182 9.82073C19.9182 10.5359 20.0981 11.1011 20.458 11.5163C20.8179 11.927 21.367 12.1323 22.1052 12.1323C22.2298 12.1323 22.3889 12.0954 22.5827 12.0216C22.7811 11.9431 22.9634 11.8439 23.1295 11.724C23.2956 11.604 23.3925 11.4794 23.4202 11.3502L24.1745 7.57144Z" fill="#060606"/>
<path d="M11.6479 13.129C11.1726 13.129 10.7551 13.0159 10.3952 12.7898C10.0399 12.5637 9.76309 12.2615 9.56469 11.8832C9.36629 11.5002 9.26709 11.0781 9.26709 10.6167C9.26709 10.1322 9.37321 9.64544 9.58545 9.15637C9.8023 8.66729 10.0953 8.20129 10.4644 7.75835C10.8335 7.31541 11.2488 6.92092 11.7102 6.57488C12.1716 6.22422 12.6514 5.94969 13.1497 5.7513C13.6526 5.54828 14.1394 5.44678 14.61 5.44678C15.0899 5.44678 15.5028 5.55982 15.8488 5.7859C16.1995 6.00737 16.4694 6.30727 16.6586 6.68561C16.8524 7.06396 16.9493 7.48382 16.9493 7.94521C16.9493 8.42506 16.8431 8.91183 16.6309 9.40552C16.4187 9.8946 16.1303 10.3629 15.7658 10.8105C15.4059 11.2534 14.9976 11.6502 14.5408 12.0008C14.084 12.3469 13.6065 12.6214 13.1082 12.8244C12.6145 13.0274 12.1277 13.129 11.6479 13.129ZM12.8867 6.47799C12.5453 6.47799 12.2546 6.57949 12.0147 6.78251C11.7748 6.98091 11.5787 7.23698 11.4264 7.55072C11.2741 7.85986 11.1634 8.18514 11.0942 8.52657C11.025 8.86338 10.9904 9.1679 10.9904 9.44012C10.9904 9.92459 11.0757 10.3698 11.2465 10.7759C11.4172 11.1773 11.6756 11.5002 12.0216 11.7448C12.3676 11.9893 12.8014 12.1116 13.3227 12.1116C13.6595 12.1116 13.9479 12.0101 14.1878 11.8071C14.4324 11.5994 14.6308 11.3388 14.783 11.025C14.9353 10.7113 15.046 10.3837 15.1152 10.0422C15.1891 9.70081 15.226 9.39399 15.226 9.12176C15.226 8.6373 15.1383 8.19667 14.963 7.79988C14.7923 7.39847 14.5339 7.0778 14.1878 6.83787C13.8418 6.59795 13.4081 6.47799 12.8867 6.47799Z" fill="#060606"/>
<path d="M11.0596 2.24929C11.0596 2.29082 10.965 2.37617 10.7758 2.50536C10.5913 2.63455 10.3721 2.77758 10.1183 2.93446C9.86456 3.08672 9.62694 3.22513 9.40548 3.34971C9.18401 3.47429 9.04098 3.55503 8.97638 3.59194C9.00406 3.56887 9.07097 3.51581 9.17709 3.43276C9.28321 3.34971 9.33627 3.29204 9.33627 3.25974C9.33627 3.17669 9.23937 3.10517 9.04559 3.04519C8.85181 2.98521 8.62111 2.93676 8.3535 2.89985C8.09051 2.85833 7.84136 2.82834 7.60605 2.80988C7.37074 2.78681 7.21386 2.77528 7.13543 2.77528C6.04654 2.77528 5.09607 3.00828 4.28402 3.47429C3.47197 3.93568 2.83987 4.57932 2.3877 5.40521C1.94015 6.22649 1.71638 7.18157 1.71638 8.27046C1.71638 9.0133 1.84787 9.68693 2.11087 10.2914C2.37848 10.8958 2.77527 11.3779 3.30126 11.7378C3.83186 12.0931 4.49396 12.2707 5.28755 12.2707C5.64744 12.2707 6.03731 12.2269 6.45718 12.1392C6.87705 12.0469 7.2923 11.9339 7.70294 11.8001C8.11358 11.6663 8.485 11.5325 8.8172 11.3987C8.36042 11.7724 7.83444 12.1046 7.23924 12.3953C6.64404 12.686 6.02347 12.9144 5.37752 13.0805C4.73619 13.2466 4.12023 13.3296 3.52965 13.3296C2.77297 13.3296 2.13163 13.1658 1.60564 12.8382C1.07966 12.506 0.680553 12.0539 0.408332 11.4817C0.136111 10.9096 0 10.2614 0 9.53698C0 8.66033 0.175329 7.82983 0.525987 7.04546C0.876645 6.26109 1.35419 5.54594 1.95861 4.89999C2.56303 4.24942 3.2482 3.68883 4.01411 3.21821C4.78002 2.74298 5.58515 2.37617 6.4295 2.11779C7.27384 1.85941 8.10666 1.73022 8.92793 1.73022C9.00176 1.73022 9.15171 1.74176 9.37779 1.76483C9.60387 1.78328 9.8461 1.81558 10.1045 1.86172C10.3629 1.90325 10.5866 1.95631 10.7758 2.0209C10.965 2.0855 11.0596 2.16163 11.0596 2.24929Z" fill="#060606"/>
</svg>
