<svg width="975" height="121" viewBox="0 0 975 121" fill="none" xmlns="http://www.w3.org/2000/svg">
<path d="M957.938 64C958.188 63.7917 958.438 63.6042 958.688 63.4375C959.312 62.8125 959.625 62.2083 959.625 61.625C959.625 60.75 958.979 60.1042 957.688 59.6875C956.396 59.2708 954.979 59 953.438 58.875C951.938 58.7083 950.875 58.625 950.25 58.625C947.625 58.625 945.542 59.2292 944 60.4375C942.5 61.6458 941.75 63.6458 941.75 66.4375C941.75 68.7292 942.438 70.5625 943.812 71.9375C945.188 73.2708 946.958 74.3542 949.125 75.1875C951.292 76.0208 953.583 76.7917 956 77.5C958.458 78.2083 960.771 79.0417 962.938 80C965.104 80.9167 966.875 82.1458 968.25 83.6875C969.667 85.2292 970.375 87.2917 970.375 89.875C970.375 93.0833 969.396 96.1458 967.438 99.0625C965.521 101.979 963 104.667 959.875 107.125C956.792 109.542 953.396 111.667 949.688 113.5C946.021 115.292 942.396 116.667 938.812 117.625C935.229 118.625 932.062 119.125 929.312 119.125C928.188 119.125 926.583 118.938 924.5 118.562C922.417 118.229 920.521 117.646 918.812 116.812C917.104 115.938 916.25 114.75 916.25 113.25C916.25 111.917 916.938 110.646 918.312 109.438C919.688 108.229 921.333 107.104 923.25 106.062C925.208 105.021 927.104 104.042 928.938 103.125C930.812 102.208 932.208 101.333 933.125 100.5C932.667 100.958 932.25 101.521 931.875 102.188C931.542 102.812 931.375 103.458 931.375 104.125C931.375 105.292 931.938 106.25 933.062 107C934.229 107.708 935.646 108.25 937.312 108.625C938.979 109 940.604 109.25 942.188 109.375C943.771 109.5 944.979 109.562 945.812 109.562C948.688 109.562 950.938 108.75 952.562 107.125C954.229 105.5 955.062 103.25 955.062 100.375C955.062 98 954.375 96.0417 953 94.5C951.625 92.9583 949.854 91.6875 947.688 90.6875C945.562 89.6875 943.292 88.7917 940.875 88C938.458 87.1667 936.167 86.2708 934 85.3125C931.875 84.3542 930.125 83.1875 928.75 81.8125C927.375 80.4375 926.688 78.6458 926.688 76.4375C926.688 73.8958 927.646 71.3333 929.562 68.75C931.479 66.1667 933.938 63.7083 936.938 61.375C939.979 59.0417 943.229 56.9792 946.688 55.1875C950.188 53.3542 953.562 51.9167 956.812 50.875C960.062 49.8333 962.812 49.3125 965.062 49.3125C965.896 49.3125 967.021 49.375 968.438 49.5C969.896 49.625 971.25 49.9167 972.5 50.375C973.792 50.8333 974.562 51.5625 974.812 52.5625C974.479 53.6458 973.833 54.4792 972.875 55.0625C971.917 55.6458 970.979 56.1875 970.062 56.6875C968.104 57.7292 966.167 58.7917 964.25 59.875C962.333 60.9167 960.479 62.1042 958.688 63.4375C958.438 63.6875 958.188 63.875 957.938 64Z" fill="black"/>
<path d="M924.062 48.375C923.229 48.5 922.146 49.0417 920.812 50C919.521 50.9583 918.104 52.0625 916.562 53.3125C915.062 54.5208 913.604 55.5833 912.188 56.5C910.812 57.375 909.667 57.8125 908.75 57.8125H900.188L892.812 94.625C892.604 95.6667 892.417 96.7292 892.25 97.8125C892.125 98.8958 892.062 99.9583 892.062 101C892.062 104.167 892.875 106.438 894.5 107.812C896.167 109.146 898.521 109.812 901.562 109.812C903.146 109.812 904.688 109.562 906.188 109.062C907.729 108.562 909.188 107.979 910.562 107.312C907.896 110.729 904.438 113.479 900.188 115.562C895.938 117.646 891.625 118.688 887.25 118.688C883.667 118.688 881.125 117.625 879.625 115.5C878.167 113.375 877.438 110.667 877.438 107.375C877.438 106.25 877.5 105.125 877.625 104C877.75 102.875 877.938 101.771 878.188 100.688L886.75 57.8125H877.75L888.312 50.75L890.062 41C891.854 39.75 893.646 38.5417 895.438 37.375C897.271 36.2083 899.146 35.125 901.062 34.125C901.812 33.75 902.562 33.375 903.312 33C904.104 32.625 904.812 32.1458 905.438 31.5625L902.062 48.375H924.062Z" fill="black"/>
<path d="M866.125 0.5625C865.917 1.8125 865.667 3.375 865.375 5.25C865.125 7.125 864.792 9 864.375 10.875C864 12.75 863.521 14.2917 862.938 15.5C862.812 15.75 862.062 16.3125 860.688 17.1875C859.354 18.0625 857.771 19.0417 855.938 20.125C854.146 21.2083 852.458 22.2083 850.875 23.125C849.333 24 848.312 24.6042 847.812 24.9375L850.75 10L866.125 0.5625ZM846.188 103.5C846.188 105.958 846.958 107.562 848.5 108.312C850.083 109.021 851.938 109.375 854.062 109.375C855.604 109.375 857.083 109.25 858.5 109C856.625 110.333 854.625 111.75 852.5 113.25C850.417 114.75 848.229 116.042 845.938 117.125C843.646 118.167 841.312 118.688 838.938 118.688C836.562 118.688 834.646 118.229 833.188 117.312C831.771 116.396 831.062 114.646 831.062 112.062C831.062 111.354 831.104 110.667 831.188 110C831.271 109.292 831.396 108.583 831.562 107.875L838.188 75.125C838.354 74.25 838.5 73.375 838.625 72.5C838.792 71.625 838.875 70.75 838.875 69.875C838.875 68.3333 838.521 67.0625 837.812 66.0625C837.146 65.0625 835.958 64.5625 834.25 64.5625C833.208 64.5625 832.167 64.6667 831.125 64.875C830.125 65.0417 829.125 65.2292 828.125 65.4375C832.875 62.4375 837.625 59.4167 842.375 56.375C847.125 53.2917 852.042 50.5625 857.125 48.1875L846.562 100.375C846.312 101.542 846.188 102.583 846.188 103.5Z" fill="black"/>
<path d="M794.688 103.062C794.688 105.271 795.271 106.833 796.438 107.75C797.604 108.667 799.271 109.125 801.438 109.125C802.854 109.125 804.229 108.979 805.562 108.688C803.771 110.062 801.812 111.521 799.688 113.062C797.604 114.604 795.417 115.917 793.125 117C790.875 118.042 788.542 118.562 786.125 118.562C784.125 118.562 782.479 118.208 781.188 117.5C779.938 116.792 779.312 115.312 779.312 113.062C779.312 112.271 779.354 111.5 779.438 110.75C779.562 109.958 779.708 109.188 779.875 108.438C777.625 109.896 775.271 111.438 772.812 113.062C770.354 114.688 767.812 116.062 765.188 117.188C762.562 118.312 759.833 118.875 757 118.875C750.708 118.875 745.917 117.146 742.625 113.688C739.375 110.188 737.75 105.333 737.75 99.125C737.75 92.7917 739.104 86.6667 741.812 80.75C744.521 74.7917 748.188 69.4375 752.812 64.6875C757.479 59.9375 762.75 56.1667 768.625 53.375C774.542 50.5833 780.667 49.1875 787 49.1875C790.042 49.1875 792.979 49.6458 795.812 50.5625C798.688 51.4792 801.562 52.3333 804.438 53.125L795.25 98.375C795.083 99.125 794.938 99.8958 794.812 100.688C794.729 101.479 794.688 102.271 794.688 103.062ZM788 68.375C785.292 61.7083 780.354 58.375 773.188 58.375C769.521 58.375 766.375 59.5833 763.75 62C761.167 64.375 759.042 67.3958 757.375 71.0625C755.75 74.6875 754.542 78.4375 753.75 82.3125C753 86.1458 752.625 89.5 752.625 92.375C752.625 97.9583 753.979 102.229 756.688 105.188C759.438 108.104 763.646 109.562 769.312 109.562C770.438 109.562 771.875 109.229 773.625 108.562C775.417 107.854 777.062 106.979 778.562 105.938C780.062 104.854 780.938 103.708 781.188 102.5L788 68.375Z" fill="#FF6432"/>
<path d="M741.375 50.4375C739.458 52.8542 737.083 55 734.25 56.875C731.417 58.7083 728.375 60.1458 725.125 61.1875C721.917 62.2292 718.792 62.75 715.75 62.75C713.917 62.75 712.208 62.3958 710.625 61.6875C709.042 60.9375 707.438 60.2083 705.812 59.5C704.229 58.75 702.542 58.375 700.75 58.375C698.958 58.375 697.375 59.375 696 61.375C694.625 63.375 693.417 65.9167 692.375 69C691.333 72.0833 690.438 75.3333 689.688 78.75C688.938 82.125 688.312 85.25 687.812 88.125C687.312 91 686.917 93.1667 686.625 94.625C686.292 96.25 685.896 97.8958 685.438 99.5625C685.021 101.188 684.812 102.854 684.812 104.562C684.812 105.896 685.083 107.062 685.625 108.062C686.208 109.062 687.271 109.562 688.812 109.562C689.812 109.562 690.917 109.312 692.125 108.812C690.083 110.271 688.312 111.792 686.812 113.375C685.312 114.917 683.688 116.229 681.938 117.312C680.188 118.354 677.875 118.875 675 118.875C673.583 118.875 672.312 118.417 671.188 117.5C670.062 116.625 669.5 115.438 669.5 113.938C669.5 113.562 669.542 113.188 669.625 112.812C671.042 105.688 672.5 98.5625 674 91.4375C675.542 84.3125 677 77.1875 678.375 70.0625C678.542 69.2292 678.688 68.3958 678.812 67.5625C678.979 66.6875 679.062 65.8333 679.062 65C679.062 62.8333 678.458 61.375 677.25 60.625C676.083 59.875 674.5 59.5 672.5 59.5C670.667 59.5 668.771 59.8125 666.812 60.4375C666.646 60.5208 666.5 60.5833 666.375 60.625C666.375 60.625 666.521 60.5625 666.812 60.4375C668.979 59.6875 670.771 58.75 672.188 57.625C673.604 56.4583 674.979 55.2917 676.312 54.125C677.688 52.9583 679.271 52 681.062 51.25C682.896 50.4583 685.271 50.0625 688.188 50.0625C692.146 50.0625 694.125 51.9583 694.125 55.75C694.125 56.5 694.083 57.2292 694 57.9375C693.958 58.6458 693.875 59.3542 693.75 60.0625C696.083 58.6875 698.75 57.125 701.75 55.375C704.792 53.625 707.875 52.125 711 50.875C714.167 49.5833 717.104 48.9375 719.812 48.9375C721.729 48.9375 723.479 49.3125 725.062 50.0625C726.646 50.7708 728.125 51.5 729.5 52.25C730.917 52.9583 732.292 53.3125 733.625 53.3125C734.875 53.3125 736.208 53 737.625 52.375C739.083 51.7083 740.333 51.0625 741.375 50.4375Z" fill="black"/>
<path d="M659.688 48.375C658.854 48.5 657.771 49.0417 656.438 50C655.146 50.9583 653.729 52.0625 652.188 53.3125C650.688 54.5208 649.229 55.5833 647.812 56.5C646.438 57.375 645.292 57.8125 644.375 57.8125H635.812L628.438 94.625C628.229 95.6667 628.042 96.7292 627.875 97.8125C627.75 98.8958 627.688 99.9583 627.688 101C627.688 104.167 628.5 106.438 630.125 107.812C631.792 109.146 634.146 109.812 637.188 109.812C638.771 109.812 640.312 109.562 641.812 109.062C643.354 108.562 644.812 107.979 646.188 107.312C643.521 110.729 640.062 113.479 635.812 115.562C631.562 117.646 627.25 118.688 622.875 118.688C619.292 118.688 616.75 117.625 615.25 115.5C613.792 113.375 613.062 110.667 613.062 107.375C613.062 106.25 613.125 105.125 613.25 104C613.375 102.875 613.562 101.771 613.812 100.688L622.375 57.8125H613.375L623.938 50.75L625.688 41C627.479 39.75 629.271 38.5417 631.062 37.375C632.896 36.2083 634.771 35.125 636.688 34.125C637.438 33.75 638.188 33.375 638.938 33C639.729 32.625 640.438 32.1458 641.062 31.5625L637.688 48.375H659.688Z" fill="black"/>
<path d="M610.875 50.4375C608.958 52.8542 606.583 55 603.75 56.875C600.917 58.7083 597.875 60.1458 594.625 61.1875C591.417 62.2292 588.292 62.75 585.25 62.75C583.417 62.75 581.708 62.3958 580.125 61.6875C578.542 60.9375 576.938 60.2083 575.312 59.5C573.729 58.75 572.042 58.375 570.25 58.375C568.458 58.375 566.875 59.375 565.5 61.375C564.125 63.375 562.917 65.9167 561.875 69C560.833 72.0833 559.938 75.3333 559.188 78.75C558.438 82.125 557.812 85.25 557.312 88.125C556.812 91 556.417 93.1667 556.125 94.625C555.792 96.25 555.396 97.8958 554.938 99.5625C554.521 101.188 554.312 102.854 554.312 104.562C554.312 105.896 554.583 107.062 555.125 108.062C555.708 109.062 556.771 109.562 558.312 109.562C559.312 109.562 560.417 109.312 561.625 108.812C559.583 110.271 557.812 111.792 556.312 113.375C554.812 114.917 553.188 116.229 551.438 117.312C549.688 118.354 547.375 118.875 544.5 118.875C543.083 118.875 541.812 118.417 540.688 117.5C539.562 116.625 539 115.438 539 113.938C539 113.562 539.042 113.188 539.125 112.812C540.542 105.688 542 98.5625 543.5 91.4375C545.042 84.3125 546.5 77.1875 547.875 70.0625C548.042 69.2292 548.188 68.3958 548.312 67.5625C548.479 66.6875 548.562 65.8333 548.562 65C548.562 62.8333 547.958 61.375 546.75 60.625C545.583 59.875 544 59.5 542 59.5C540.167 59.5 538.271 59.8125 536.312 60.4375C536.146 60.5208 536 60.5833 535.875 60.625C535.875 60.625 536.021 60.5625 536.312 60.4375C538.479 59.6875 540.271 58.75 541.688 57.625C543.104 56.4583 544.479 55.2917 545.812 54.125C547.188 52.9583 548.771 52 550.562 51.25C552.396 50.4583 554.771 50.0625 557.688 50.0625C561.646 50.0625 563.625 51.9583 563.625 55.75C563.625 56.5 563.583 57.2292 563.5 57.9375C563.458 58.6458 563.375 59.3542 563.25 60.0625C565.583 58.6875 568.25 57.125 571.25 55.375C574.292 53.625 577.375 52.125 580.5 50.875C583.667 49.5833 586.604 48.9375 589.312 48.9375C591.229 48.9375 592.979 49.3125 594.562 50.0625C596.146 50.7708 597.625 51.5 599 52.25C600.417 52.9583 601.792 53.3125 603.125 53.3125C604.375 53.3125 605.708 53 607.125 52.375C608.583 51.7083 609.833 51.0625 610.875 50.4375Z" fill="black"/>
<path d="M475.188 118.562C470.896 118.562 467.125 117.542 463.875 115.5C460.667 113.458 458.167 110.729 456.375 107.312C454.583 103.854 453.688 100.042 453.688 95.875C453.688 91.5 454.646 87.1042 456.562 82.6875C458.521 78.2708 461.167 74.0625 464.5 70.0625C467.833 66.0625 471.583 62.5 475.75 59.375C479.917 56.2083 484.25 53.7292 488.75 51.9375C493.292 50.1042 497.688 49.1875 501.938 49.1875C506.271 49.1875 510 50.2083 513.125 52.25C516.292 54.25 518.729 56.9583 520.438 60.375C522.188 63.7917 523.062 67.5833 523.062 71.75C523.062 76.0833 522.104 80.4792 520.188 84.9375C518.271 89.3542 515.667 93.5833 512.375 97.625C509.125 101.625 505.438 105.208 501.312 108.375C497.188 111.5 492.875 113.979 488.375 115.812C483.917 117.646 479.521 118.562 475.188 118.562ZM486.375 58.5C483.292 58.5 480.667 59.4167 478.5 61.25C476.333 63.0417 474.562 65.3542 473.188 68.1875C471.812 70.9792 470.812 73.9167 470.188 77C469.562 80.0417 469.25 82.7917 469.25 85.25C469.25 89.625 470.021 93.6458 471.562 97.3125C473.104 100.938 475.438 103.854 478.562 106.062C481.688 108.271 485.604 109.375 490.312 109.375C493.354 109.375 495.958 108.458 498.125 106.625C500.333 104.75 502.125 102.396 503.5 99.5625C504.875 96.7292 505.875 93.7708 506.5 90.6875C507.167 87.6042 507.5 84.8333 507.5 82.375C507.5 78 506.708 74.0208 505.125 70.4375C503.583 66.8125 501.25 63.9167 498.125 61.75C495 59.5833 491.083 58.5 486.375 58.5Z" fill="black"/>
<path d="M394.188 81.0625C393.479 84.6875 392.75 88.1042 392 91.3125C391.25 94.5208 390.083 97.5208 388.5 100.312C386.917 103.104 384.562 105.708 381.438 108.125H403.188C401.521 108.625 399.771 109.646 397.938 111.188C396.104 112.688 394.312 114.104 392.562 115.438C390.812 116.771 389.25 117.438 387.875 117.438H366.062C368.562 115.562 370.5 113.792 371.875 112.125C373.292 110.417 374.375 108.542 375.125 106.5C375.917 104.458 376.604 101.938 377.188 98.9375L391.625 27.75H375.688C376.271 27.3333 377.271 26.625 378.688 25.625C380.146 24.5833 381.729 23.5 383.438 22.375C385.146 21.25 386.708 20.2917 388.125 19.5C389.542 18.7083 390.521 18.3125 391.062 18.3125H436.125C441.917 18.3125 446.625 19.625 450.25 22.25C453.875 24.875 455.688 29.2917 455.688 35.5C455.688 41.5 454.354 47.0208 451.688 52.0625C449.062 57.1042 445.625 61.6458 441.375 65.6875C437.125 69.6875 432.562 73.125 427.688 76C424.729 77.7917 421.292 79.0417 417.375 79.75C413.458 80.4167 409.458 80.8125 405.375 80.9375C401.333 81.0208 397.604 81.0625 394.188 81.0625ZM396.812 68.5C398.688 69.0833 401.042 69.625 403.875 70.125C406.708 70.625 409.542 71.0208 412.375 71.3125C415.25 71.6042 417.667 71.75 419.625 71.75C424.083 71.75 427.833 70.625 430.875 68.375C433.917 66.125 436.208 63.1875 437.75 59.5625C439.292 55.9375 440.062 52.0625 440.062 47.9375C440.062 43.3542 438.896 39.7292 436.562 37.0625C434.271 34.3542 431.312 32.3333 427.688 31C424.062 29.6667 420.229 28.7917 416.188 28.375C412.146 27.9583 408.417 27.75 405 27.75L396.812 68.5Z" fill="black"/>
<path d="M262.625 91.75C262.875 96.0833 264.125 99.5208 266.375 102.062C268.625 104.562 271.479 106.375 274.938 107.5C278.438 108.583 282.083 109.125 285.875 109.125C289.333 109.125 292.792 108.729 296.25 107.938C299.75 107.104 303.104 106.042 306.312 104.75C303.271 107.458 299.729 109.854 295.688 111.938C291.688 113.979 287.5 115.583 283.125 116.75C278.792 117.875 274.583 118.438 270.5 118.438C266.333 118.438 262.521 117.5 259.062 115.625C255.646 113.708 252.896 111.104 250.812 107.812C248.771 104.479 247.75 100.688 247.75 96.4375C247.75 94.9792 247.896 93.5625 248.188 92.1875C249.021 88.0625 250.688 84.0625 253.188 80.1875C255.729 76.3125 258.771 72.6875 262.312 69.3125C265.854 65.9375 269.604 62.9583 273.562 60.375C277.521 57.7917 281.333 55.7292 285 54.1875C288.125 52.8542 291.354 51.8125 294.688 51.0625C298.062 50.2708 301.458 49.875 304.875 49.875C307.375 49.875 309.625 50.6042 311.625 52.0625C313.667 53.4792 314.688 55.5417 314.688 58.25C314.688 60.625 313.688 63 311.688 65.375C309.688 67.7083 307.042 69.9792 303.75 72.1875C300.458 74.3958 296.854 76.5 292.938 78.5C289.021 80.4583 285.104 82.2917 281.188 84C277.271 85.7083 273.667 87.2292 270.375 88.5625C267.125 89.8542 264.542 90.9167 262.625 91.75ZM287.312 59.625C281.729 59.625 277.146 61 273.562 63.75C269.979 66.4583 267.292 70 265.5 74.375C263.75 78.75 262.792 83.4167 262.625 88.375C264.042 88.0833 266.188 87.4375 269.062 86.4375C271.979 85.3958 275.167 84.125 278.625 82.625C282.125 81.0833 285.458 79.4375 288.625 77.6875C291.792 75.8958 294.396 74.1042 296.438 72.3125C298.521 70.5208 299.562 68.8333 299.562 67.25C299.562 65.5417 298.833 64.125 297.375 63C295.917 61.8333 294.208 60.9792 292.25 60.4375C290.333 59.8958 288.688 59.625 287.312 59.625Z" fill="black"/>
<path d="M225 103.125C225 105.375 225.583 106.938 226.75 107.812C227.958 108.688 229.625 109.125 231.75 109.125C233.167 109.125 234.542 108.979 235.875 108.688C234 110.021 232 111.458 229.875 113C227.792 114.542 225.604 115.854 223.312 116.938C221.062 118.021 218.708 118.562 216.25 118.562C214.292 118.562 212.688 118.188 211.438 117.438C210.188 116.729 209.562 115.292 209.562 113.125C209.562 112.333 209.625 111.542 209.75 110.75C209.875 109.958 210.021 109.188 210.188 108.438C207.854 109.896 205.292 111.438 202.5 113.062C199.708 114.688 196.833 116.062 193.875 117.188C190.917 118.312 188.021 118.875 185.188 118.875C178.771 118.875 173.729 117.083 170.062 113.5C166.438 109.875 164.625 104.833 164.625 98.375C164.625 93.25 165.646 88.2708 167.688 83.4375C169.729 78.6042 172.5 74.125 176 70C179.542 65.8333 183.562 62.2083 188.062 59.125C192.562 56 197.312 53.5625 202.312 51.8125C207.354 50.0625 212.354 49.1875 217.312 49.1875C219.062 49.1875 220.646 49.3333 222.062 49.625L227 24.8125C227.25 23.6042 227.375 22.5 227.375 21.5C227.375 19.9167 227.021 18.6458 226.312 17.6875C225.604 16.6875 224.396 16.1875 222.688 16.1875C221.646 16.1875 220.604 16.2917 219.562 16.5C218.521 16.7083 217.521 16.9375 216.562 17.1875C221.188 14.1042 225.875 11.0417 230.625 8C235.375 4.95833 240.312 2.29167 245.438 0L225.562 98.375C225.396 99.1667 225.25 99.9583 225.125 100.75C225.042 101.542 225 102.333 225 103.125ZM218.312 68.375C216.812 64.9583 214.5 62.4375 211.375 60.8125C208.292 59.1875 204.958 58.375 201.375 58.375C197.417 58.375 194.062 59.3333 191.312 61.25C188.604 63.125 186.396 65.5833 184.688 68.625C183.021 71.6667 181.792 74.9583 181 78.5C180.25 82.0417 179.875 85.4375 179.875 88.6875C179.875 95.1458 181.5 100.25 184.75 104C188 107.708 192.958 109.562 199.625 109.562C200.75 109.562 202.188 109.229 203.938 108.562C205.729 107.854 207.375 106.958 208.875 105.875C210.375 104.792 211.25 103.667 211.5 102.5L218.312 68.375Z" fill="black"/>
<path d="M105.188 118.562C100.896 118.562 97.125 117.542 93.875 115.5C90.6667 113.458 88.1667 110.729 86.375 107.312C84.5833 103.854 83.6875 100.042 83.6875 95.875C83.6875 91.5 84.6458 87.1042 86.5625 82.6875C88.5208 78.2708 91.1667 74.0625 94.5 70.0625C97.8333 66.0625 101.583 62.5 105.75 59.375C109.917 56.2083 114.25 53.7292 118.75 51.9375C123.292 50.1042 127.688 49.1875 131.938 49.1875C136.271 49.1875 140 50.2083 143.125 52.25C146.292 54.25 148.729 56.9583 150.438 60.375C152.188 63.7917 153.062 67.5833 153.062 71.75C153.062 76.0833 152.104 80.4792 150.188 84.9375C148.271 89.3542 145.667 93.5833 142.375 97.625C139.125 101.625 135.438 105.208 131.312 108.375C127.188 111.5 122.875 113.979 118.375 115.812C113.917 117.646 109.521 118.562 105.188 118.562ZM116.375 58.5C113.292 58.5 110.667 59.4167 108.5 61.25C106.333 63.0417 104.562 65.3542 103.188 68.1875C101.812 70.9792 100.812 73.9167 100.188 77C99.5625 80.0417 99.25 82.7917 99.25 85.25C99.25 89.625 100.021 93.6458 101.562 97.3125C103.104 100.938 105.438 103.854 108.562 106.062C111.688 108.271 115.604 109.375 120.312 109.375C123.354 109.375 125.958 108.458 128.125 106.625C130.333 104.75 132.125 102.396 133.5 99.5625C134.875 96.7292 135.875 93.7708 136.5 90.6875C137.167 87.6042 137.5 84.8333 137.5 82.375C137.5 78 136.708 74.0208 135.125 70.4375C133.583 66.8125 131.25 63.9167 128.125 61.75C125 59.5833 121.083 58.5 116.375 58.5Z" fill="black"/>
<path d="M99.875 20.3125C99.875 20.6875 99.0208 21.4583 97.3125 22.625C95.6458 23.7917 93.6667 25.0833 91.375 26.5C89.0833 27.875 86.9375 29.125 84.9375 30.25C82.9375 31.375 81.6458 32.1042 81.0625 32.4375C81.3125 32.2292 81.9167 31.75 82.875 31C83.8333 30.25 84.3125 29.7292 84.3125 29.4375C84.3125 28.6875 83.4375 28.0417 81.6875 27.5C79.9375 26.9583 77.8542 26.5208 75.4375 26.1875C73.0625 25.8125 70.8125 25.5417 68.6875 25.375C66.5625 25.1667 65.1458 25.0625 64.4375 25.0625C54.6042 25.0625 46.0208 27.1667 38.6875 31.375C31.3542 35.5417 25.6458 41.3542 21.5625 48.8125C17.5208 56.2292 15.5 64.8542 15.5 74.6875C15.5 81.3958 16.6875 87.4792 19.0625 92.9375C21.4792 98.3958 25.0625 102.75 29.8125 106C34.6042 109.208 40.5833 110.812 47.75 110.812C51 110.812 54.5208 110.417 58.3125 109.625C62.1042 108.792 65.8542 107.771 69.5625 106.562C73.2708 105.354 76.625 104.146 79.625 102.938C75.5 106.312 70.75 109.312 65.375 111.938C60 114.562 54.3958 116.625 48.5625 118.125C42.7708 119.625 37.2083 120.375 31.875 120.375C25.0417 120.375 19.25 118.896 14.5 115.938C9.75 112.938 6.14583 108.854 3.6875 103.688C1.22917 98.5208 0 92.6667 0 86.125C0 78.2083 1.58333 70.7083 4.75 63.625C7.91667 56.5417 12.2292 50.0833 17.6875 44.25C23.1458 38.375 29.3333 33.3125 36.25 29.0625C43.1667 24.7708 50.4375 21.4583 58.0625 19.125C65.6875 16.7917 73.2083 15.625 80.625 15.625C81.2917 15.625 82.6458 15.7292 84.6875 15.9375C86.7292 16.1042 88.9167 16.3958 91.25 16.8125C93.5833 17.1875 95.6042 17.6667 97.3125 18.25C99.0208 18.8333 99.875 19.5208 99.875 20.3125Z" fill="black"/>
</svg>
