<svg width="9" height="9" viewBox="0 0 9 9" fill="none" xmlns="http://www.w3.org/2000/svg">
<path d="M6.99901 6.41258C6.99901 6.65711 7.06361 6.83013 7.1928 6.93164C7.32199 7.03315 7.50654 7.0839 7.74647 7.0839C7.90334 7.0839 8.0556 7.06775 8.20325 7.03545C8.00485 7.18771 7.78799 7.3492 7.55268 7.51992C7.32199 7.69063 7.07976 7.83597 6.82599 7.95593C6.57684 8.07128 6.31846 8.12895 6.05085 8.12895C5.82938 8.12895 5.64713 8.08974 5.5041 8.0113C5.36569 7.93286 5.29648 7.76907 5.29648 7.51992C5.29648 7.43225 5.30109 7.34689 5.31032 7.26384C5.32416 7.17618 5.34031 7.09082 5.35876 7.00777C5.10961 7.16926 4.84893 7.33997 4.5767 7.51992C4.30448 7.69986 4.02303 7.85212 3.73236 7.97669C3.44168 8.10127 3.13947 8.16356 2.82572 8.16356C2.12902 8.16356 1.59842 7.97208 1.23392 7.58912C0.874035 7.20156 0.694092 6.66403 0.694092 5.97656C0.694092 5.27524 0.844044 4.597 1.14395 3.94182C1.44385 3.28203 1.84988 2.68914 2.36202 2.16316C2.87878 1.63717 3.46244 1.21961 4.11301 0.910476C4.76818 0.601344 5.44643 0.446777 6.14774 0.446777C6.48456 0.446777 6.80984 0.49753 7.12359 0.599037C7.44195 0.700543 7.76031 0.795128 8.07867 0.882793L7.0613 5.89351C7.04285 5.97656 7.0267 6.06192 7.01285 6.14958C7.00363 6.23725 6.99901 6.32491 6.99901 6.41258ZM6.25848 2.57149C5.95857 1.83326 5.41182 1.46415 4.61823 1.46415C4.21221 1.46415 3.86385 1.59795 3.57318 1.86556C3.28711 2.12855 3.0518 2.46306 2.86725 2.86909C2.6873 3.2705 2.5535 3.68575 2.46584 4.11484C2.38279 4.53932 2.34126 4.91074 2.34126 5.2291C2.34126 5.84737 2.49121 6.3203 2.79112 6.64789C3.09564 6.97086 3.56164 7.13235 4.18914 7.13235C4.31371 7.13235 4.47289 7.09544 4.66668 7.02161C4.86508 6.94318 5.04732 6.84628 5.21343 6.73094C5.37953 6.61097 5.47642 6.48409 5.5041 6.35029L6.25848 2.57149Z" fill="#DE7272"/>
</svg>
