<svg width="68" height="70" viewBox="0 0 68 70" fill="none" xmlns="http://www.w3.org/2000/svg">
<path d="M56.9375 53.875C56.9375 56.0833 57.5208 57.6458 58.6875 58.5625C59.8542 59.4792 61.5208 59.9375 63.6875 59.9375C65.1042 59.9375 66.4792 59.7917 67.8125 59.5C66.0208 60.875 64.0625 62.3333 61.9375 63.875C59.8542 65.4167 57.6667 66.7292 55.375 67.8125C53.125 68.8542 50.7917 69.375 48.375 69.375C46.375 69.375 44.7292 69.0208 43.4375 68.3125C42.1875 67.6042 41.5625 66.125 41.5625 63.875C41.5625 63.0833 41.6042 62.3125 41.6875 61.5625C41.8125 60.7708 41.9583 60 42.125 59.25C39.875 60.7083 37.5208 62.25 35.0625 63.875C32.6042 65.5 30.0625 66.875 27.4375 68C24.8125 69.125 22.0833 69.6875 19.25 69.6875C12.9583 69.6875 8.16667 67.9583 4.875 64.5C1.625 61 0 56.1458 0 49.9375C0 43.6042 1.35417 37.4792 4.0625 31.5625C6.77083 25.6042 10.4375 20.25 15.0625 15.5C19.7292 10.75 25 6.97917 30.875 4.1875C36.7917 1.39583 42.9167 0 49.25 0C52.2917 0 55.2292 0.458333 58.0625 1.375C60.9375 2.29167 63.8125 3.14583 66.6875 3.9375L57.5 49.1875C57.3333 49.9375 57.1875 50.7083 57.0625 51.5C56.9792 52.2917 56.9375 53.0833 56.9375 53.875ZM50.25 19.1875C47.5417 12.5208 42.6042 9.1875 35.4375 9.1875C31.7708 9.1875 28.625 10.3958 26 12.8125C23.4167 15.1875 21.2917 18.2083 19.625 21.875C18 25.5 16.7917 29.25 16 33.125C15.25 36.9583 14.875 40.3125 14.875 43.1875C14.875 48.7708 16.2292 53.0417 18.9375 56C21.6875 58.9167 25.8958 60.375 31.5625 60.375C32.6875 60.375 34.125 60.0417 35.875 59.375C37.6667 58.6667 39.3125 57.7917 40.8125 56.75C42.3125 55.6667 43.1875 54.5208 43.4375 53.3125L50.25 19.1875Z" fill="#EB5424"/>
</svg>
